<mxfile host="app.diagrams.net" modified="2021-12-06T17:11:13.631Z" agent="5.0 (X11)" etag="hYt9RWWPLYUs97th_aaJ" version="15.9.1" type="github" pages="8">
  <diagram name="review_sys_overview" id="FKUYxz_ZdpuzisjiMlFq">
    <mxGraphModel dx="1422" dy="793" grid="0" gridSize="10" guides="1" tooltips="1" connect="1" arrows="1" fold="1" page="1" pageScale="1" pageWidth="850" pageHeight="1100" background="none" math="0" shadow="0">
      <root>
        <mxCell id="abtCBI25ap2iII_cYQvI-0" />
        <mxCell id="abtCBI25ap2iII_cYQvI-1" parent="abtCBI25ap2iII_cYQvI-0" />
        <mxCell id="abtCBI25ap2iII_cYQvI-2" value="" style="group;fontStyle=1" parent="abtCBI25ap2iII_cYQvI-1" vertex="1" connectable="0">
          <mxGeometry x="71" y="103" width="726" height="257" as="geometry" />
        </mxCell>
        <mxCell id="abtCBI25ap2iII_cYQvI-3" value="" style="rounded=0;whiteSpace=wrap;html=1;fillColor=#fff2cc;strokeColor=#d6b656;fontColor=default;" parent="abtCBI25ap2iII_cYQvI-2" vertex="1">
          <mxGeometry y="20" width="726" height="237" as="geometry" />
        </mxCell>
        <mxCell id="abtCBI25ap2iII_cYQvI-4" value="Local System" style="text;html=1;strokeColor=#d6b656;fillColor=#fff2cc;align=center;verticalAlign=middle;whiteSpace=wrap;rounded=0;sketch=0;fontStyle=1;fontColor=default;" parent="abtCBI25ap2iII_cYQvI-2" vertex="1">
          <mxGeometry x="0.31523684210526154" width="100.30263157894737" height="20" as="geometry" />
        </mxCell>
        <mxCell id="5UaGA8SGJp7r_FG1nC9X-2" style="edgeStyle=orthogonalEdgeStyle;rounded=1;orthogonalLoop=1;jettySize=auto;html=1;exitX=0.5;exitY=1;exitDx=0;exitDy=0;entryX=0.5;entryY=0;entryDx=0;entryDy=0;fontSize=10;strokeColor=#A8201A;" parent="abtCBI25ap2iII_cYQvI-2" source="jQzm8G0YJGmtn-T8Q8wB-0" target="abtCBI25ap2iII_cYQvI-56" edge="1">
          <mxGeometry relative="1" as="geometry">
            <Array as="points">
              <mxPoint x="371" y="76" />
              <mxPoint x="371" y="76" />
            </Array>
          </mxGeometry>
        </mxCell>
        <mxCell id="jQzm8G0YJGmtn-T8Q8wB-0" value="Wi-Fi Module" style="text;html=1;strokeColor=#b85450;fillColor=#f8cecc;align=center;verticalAlign=middle;whiteSpace=wrap;rounded=0;sketch=0;fontSize=13;strokeWidth=1;fontStyle=1" parent="abtCBI25ap2iII_cYQvI-2" vertex="1">
          <mxGeometry x="280.9" y="25" width="179.55" height="40" as="geometry" />
        </mxCell>
        <mxCell id="5UaGA8SGJp7r_FG1nC9X-1" style="edgeStyle=orthogonalEdgeStyle;rounded=1;orthogonalLoop=1;jettySize=auto;html=1;exitX=0.5;exitY=0;exitDx=0;exitDy=0;entryX=0.5;entryY=1;entryDx=0;entryDy=0;fontSize=10;strokeColor=#A8201A;" parent="abtCBI25ap2iII_cYQvI-2" source="abtCBI25ap2iII_cYQvI-56" target="jQzm8G0YJGmtn-T8Q8wB-0" edge="1">
          <mxGeometry relative="1" as="geometry" />
        </mxCell>
        <mxCell id="abtCBI25ap2iII_cYQvI-56" value="&lt;div&gt;&lt;font size=&quot;1&quot;&gt;&lt;b style=&quot;font-size: 17px&quot;&gt;Controller&lt;/b&gt;&lt;/font&gt;&lt;/div&gt;&lt;div&gt;&lt;br&gt;&lt;/div&gt;" style="rounded=0;whiteSpace=wrap;html=1;fillColor=#f8cecc;strokeColor=#b85450;fontColor=default;verticalAlign=top;" parent="abtCBI25ap2iII_cYQvI-2" vertex="1">
          <mxGeometry x="280.45" y="86" width="179.99999999999994" height="145.99999999999997" as="geometry" />
        </mxCell>
        <mxCell id="abtCBI25ap2iII_cYQvI-57" value="" style="shape=image;verticalLabelPosition=bottom;labelBackgroundColor=#ffffff;verticalAlign=top;aspect=fixed;imageAspect=0;image=https://cdn.discordapp.com/attachments/897132688518025257/905244486689517719/Raspi-PGB001.png;fontColor=default;" parent="abtCBI25ap2iII_cYQvI-2" vertex="1">
          <mxGeometry x="323.3299999999999" y="117.23881656804733" width="93.79420118343194" height="83.51372781065088" as="geometry" />
        </mxCell>
        <mxCell id="abtCBI25ap2iII_cYQvI-23" value="" style="group" parent="abtCBI25ap2iII_cYQvI-2" vertex="1" connectable="0">
          <mxGeometry x="517" y="73.18" width="180" height="130.63" as="geometry" />
        </mxCell>
        <mxCell id="abtCBI25ap2iII_cYQvI-24" value="" style="group" parent="abtCBI25ap2iII_cYQvI-23" vertex="1" connectable="0">
          <mxGeometry width="180" height="130.63" as="geometry" />
        </mxCell>
        <mxCell id="abtCBI25ap2iII_cYQvI-25" value="&lt;div style=&quot;font-size: 17px;&quot;&gt;&lt;font style=&quot;font-size: 17px;&quot;&gt;&lt;b style=&quot;font-size: 17px;&quot;&gt;Lamp&lt;/b&gt;&lt;/font&gt;&lt;/div&gt;" style="rounded=0;whiteSpace=wrap;html=1;fillColor=#dae8fc;strokeColor=#6c8ebf;fontColor=default;fontSize=17;verticalAlign=top;" parent="abtCBI25ap2iII_cYQvI-24" vertex="1">
          <mxGeometry width="180" height="130.63" as="geometry" />
        </mxCell>
        <mxCell id="abtCBI25ap2iII_cYQvI-26" value="Dimmable LED lamp" style="text;html=1;strokeColor=none;fillColor=none;align=center;verticalAlign=middle;whiteSpace=wrap;rounded=0;sketch=0;fontSize=9;fontColor=default;" parent="abtCBI25ap2iII_cYQvI-24" vertex="1">
          <mxGeometry x="25" y="98.63" width="130" height="30" as="geometry" />
        </mxCell>
        <mxCell id="abtCBI25ap2iII_cYQvI-27" value="" style="whiteSpace=wrap;html=1;aspect=fixed;rounded=0;sketch=0;fillColor=#dae8fc;strokeColor=#000000;strokeWidth=0.6;fontColor=default;" parent="abtCBI25ap2iII_cYQvI-24" vertex="1">
          <mxGeometry x="59.319999999999936" y="32.19" width="65.63" height="65.63" as="geometry" />
        </mxCell>
        <mxCell id="abtCBI25ap2iII_cYQvI-28" value="" style="shape=image;verticalLabelPosition=bottom;labelBackgroundColor=#ffffff;verticalAlign=top;aspect=fixed;imageAspect=0;image=https://cdn-icons-png.flaticon.com/512/75/75384.png;fontColor=default;" parent="abtCBI25ap2iII_cYQvI-24" vertex="1">
          <mxGeometry x="63.35000000000002" y="36.22000000000003" width="57.56" height="57.56" as="geometry" />
        </mxCell>
        <mxCell id="5UaGA8SGJp7r_FG1nC9X-0" value="" style="shape=image;verticalLabelPosition=bottom;labelBackgroundColor=#ffffff;verticalAlign=top;aspect=fixed;imageAspect=0;image=https://cdn.discordapp.com/attachments/897132688518025257/905104490057838683/847px-Wireless-icon.png;fontColor=default;rotation=-180;" parent="abtCBI25ap2iII_cYQvI-2" vertex="1">
          <mxGeometry x="354.99999999999994" y="-14" width="33.13" height="30" as="geometry" />
        </mxCell>
        <mxCell id="abtCBI25ap2iII_cYQvI-5" value="" style="group;strokeColor=#6c8ebf;fillColor=#dae8fc;container=0;" parent="abtCBI25ap2iII_cYQvI-1" vertex="1" connectable="0">
          <mxGeometry x="101" y="134.82" width="185" height="213.37" as="geometry" />
        </mxCell>
        <mxCell id="abtCBI25ap2iII_cYQvI-29" style="edgeStyle=orthogonalEdgeStyle;rounded=0;orthogonalLoop=1;jettySize=auto;html=1;exitX=1.003;exitY=0.384;exitDx=0;exitDy=0;strokeColor=#A8201A;exitPerimeter=0;" parent="abtCBI25ap2iII_cYQvI-1" source="abtCBI25ap2iII_cYQvI-56" edge="1">
          <mxGeometry relative="1" as="geometry">
            <Array as="points">
              <mxPoint x="549" y="245" />
              <mxPoint x="549" y="245" />
            </Array>
            <mxPoint x="589" y="245" as="targetPoint" />
          </mxGeometry>
        </mxCell>
        <mxCell id="abtCBI25ap2iII_cYQvI-30" style="edgeStyle=orthogonalEdgeStyle;rounded=0;orthogonalLoop=1;jettySize=auto;html=1;entryX=0.668;entryY=-0.031;entryDx=0;entryDy=0;entryPerimeter=0;fontSize=12;strokeColor=#A8201A;" parent="abtCBI25ap2iII_cYQvI-1" target="abtCBI25ap2iII_cYQvI-44" edge="1">
          <mxGeometry relative="1" as="geometry">
            <mxPoint x="442" y="336" as="sourcePoint" />
          </mxGeometry>
        </mxCell>
        <mxCell id="abtCBI25ap2iII_cYQvI-31" style="edgeStyle=orthogonalEdgeStyle;rounded=0;orthogonalLoop=1;jettySize=auto;html=1;exitX=1;exitY=0.5;exitDx=0;exitDy=0;strokeColor=#A8201A;" parent="abtCBI25ap2iII_cYQvI-1" source="abtCBI25ap2iII_cYQvI-6" edge="1">
          <mxGeometry relative="1" as="geometry">
            <mxPoint x="352" y="245" as="targetPoint" />
            <Array as="points">
              <mxPoint x="286" y="245" />
            </Array>
          </mxGeometry>
        </mxCell>
        <mxCell id="abtCBI25ap2iII_cYQvI-32" value="" style="group" parent="abtCBI25ap2iII_cYQvI-1" vertex="1" connectable="0">
          <mxGeometry x="71" y="380.2" width="268" height="138" as="geometry" />
        </mxCell>
        <mxCell id="abtCBI25ap2iII_cYQvI-33" value="&lt;font style=&quot;font-size: 16px&quot;&gt;&lt;font style=&quot;font-size: 12px&quot;&gt;Remote Client&lt;/font&gt;&lt;br&gt;&lt;/font&gt;" style="text;html=1;strokeColor=#6c8ebf;fillColor=#dae8fc;align=center;verticalAlign=middle;whiteSpace=wrap;rounded=0;sketch=0;fontStyle=1;" parent="abtCBI25ap2iII_cYQvI-32" vertex="1">
          <mxGeometry width="105" height="20" as="geometry" />
        </mxCell>
        <mxCell id="abtCBI25ap2iII_cYQvI-34" value="" style="rounded=0;whiteSpace=wrap;html=1;fillColor=#dae8fc;strokeColor=#6c8ebf;fontColor=default;verticalAlign=top;fontStyle=1;fontSize=18;labelBackgroundColor=none;" parent="abtCBI25ap2iII_cYQvI-32" vertex="1">
          <mxGeometry y="20" width="268" height="118" as="geometry" />
        </mxCell>
        <mxCell id="abtCBI25ap2iII_cYQvI-35" value="" style="group;labelBackgroundColor=none;fontColor=default;" parent="abtCBI25ap2iII_cYQvI-32" vertex="1" connectable="0">
          <mxGeometry x="10.000000000000057" y="28" width="117.72" height="100" as="geometry" />
        </mxCell>
        <mxCell id="abtCBI25ap2iII_cYQvI-36" value="MobileAPP" style="rounded=0;whiteSpace=wrap;html=1;fillColor=#dae8fc;strokeColor=#6c8ebf;fontColor=default;verticalAlign=top;fontStyle=1;fontSize=18;labelBackgroundColor=none;" parent="abtCBI25ap2iII_cYQvI-35" vertex="1">
          <mxGeometry width="117.71999999999997" height="100" as="geometry" />
        </mxCell>
        <mxCell id="abtCBI25ap2iII_cYQvI-37" value="" style="whiteSpace=wrap;html=1;aspect=fixed;rounded=0;sketch=0;fillColor=#dae8fc;strokeColor=#000000;strokeWidth=0.6;fontColor=default;labelBackgroundColor=none;" parent="abtCBI25ap2iII_cYQvI-35" vertex="1">
          <mxGeometry x="25.123661538461533" y="29.21999999999997" width="65.63" height="65.63" as="geometry" />
        </mxCell>
        <mxCell id="abtCBI25ap2iII_cYQvI-38" value="" style="shape=image;verticalLabelPosition=bottom;labelBackgroundColor=#ffffff;verticalAlign=top;aspect=fixed;imageAspect=0;image=https://cdn.discordapp.com/attachments/897132688518025257/907346763529199696/65680.png;" parent="abtCBI25ap2iII_cYQvI-35" vertex="1">
          <mxGeometry x="28.75999999999995" y="32.860000000000014" width="58.36" height="58.36" as="geometry" />
        </mxCell>
        <mxCell id="abtCBI25ap2iII_cYQvI-39" value="" style="group" parent="abtCBI25ap2iII_cYQvI-32" vertex="1" connectable="0">
          <mxGeometry x="140.67000000000002" y="28" width="117.72" height="100" as="geometry" />
        </mxCell>
        <mxCell id="abtCBI25ap2iII_cYQvI-40" value="Web Site" style="rounded=0;whiteSpace=wrap;html=1;fillColor=#dae8fc;strokeColor=#6c8ebf;fontColor=default;verticalAlign=top;fontStyle=1;fontSize=18;labelBackgroundColor=none;" parent="abtCBI25ap2iII_cYQvI-39" vertex="1">
          <mxGeometry width="117.71999999999997" height="100" as="geometry" />
        </mxCell>
        <mxCell id="abtCBI25ap2iII_cYQvI-41" value="" style="whiteSpace=wrap;html=1;aspect=fixed;rounded=0;sketch=0;fillColor=#dae8fc;strokeColor=#000000;strokeWidth=0.6;fontColor=default;labelBackgroundColor=none;" parent="abtCBI25ap2iII_cYQvI-39" vertex="1">
          <mxGeometry x="25.123661538461533" y="29.21999999999997" width="65.63" height="65.63" as="geometry" />
        </mxCell>
        <mxCell id="abtCBI25ap2iII_cYQvI-42" value="" style="shape=image;verticalLabelPosition=bottom;labelBackgroundColor=#ffffff;verticalAlign=top;aspect=fixed;imageAspect=0;image=https://cdn.discordapp.com/attachments/897132688518025257/907346951517900810/pictogram-4471660_1280.png;" parent="abtCBI25ap2iII_cYQvI-39" vertex="1">
          <mxGeometry x="28.99999999999997" y="32.39999999999998" width="59.72" height="59.27" as="geometry" />
        </mxCell>
        <mxCell id="abtCBI25ap2iII_cYQvI-43" value="" style="group" parent="abtCBI25ap2iII_cYQvI-1" vertex="1" connectable="0">
          <mxGeometry x="371.95" y="380.2" width="139" height="138" as="geometry" />
        </mxCell>
        <mxCell id="abtCBI25ap2iII_cYQvI-44" value="&lt;font style=&quot;font-size: 12px&quot;&gt;Remote Server&lt;/font&gt;" style="text;html=1;strokeColor=#6c8ebf;fillColor=#dae8fc;align=center;verticalAlign=middle;whiteSpace=wrap;rounded=0;sketch=0;fontStyle=1;fontSize=13;" parent="abtCBI25ap2iII_cYQvI-43" vertex="1">
          <mxGeometry width="105" height="20" as="geometry" />
        </mxCell>
        <mxCell id="abtCBI25ap2iII_cYQvI-45" value="" style="rounded=0;whiteSpace=wrap;html=1;fillColor=#dae8fc;strokeColor=#6c8ebf;fontColor=default;verticalAlign=top;fontStyle=1;fontSize=18;labelBackgroundColor=none;" parent="abtCBI25ap2iII_cYQvI-43" vertex="1">
          <mxGeometry y="20" width="139" height="118" as="geometry" />
        </mxCell>
        <mxCell id="abtCBI25ap2iII_cYQvI-46" value="&lt;font style=&quot;font-size: 18px;&quot;&gt;Database&lt;/font&gt;" style="rounded=0;whiteSpace=wrap;html=1;fillColor=#dae8fc;strokeColor=#6c8ebf;fontColor=default;verticalAlign=top;fontStyle=1;fontSize=18;labelBackgroundColor=none;" parent="abtCBI25ap2iII_cYQvI-43" vertex="1">
          <mxGeometry x="10.639999999999986" y="29" width="117.71999999999997" height="100" as="geometry" />
        </mxCell>
        <mxCell id="abtCBI25ap2iII_cYQvI-47" value="" style="whiteSpace=wrap;html=1;aspect=fixed;rounded=0;sketch=0;fillColor=#dae8fc;strokeColor=#000000;strokeWidth=0.6;fontColor=default;labelBackgroundColor=none;" parent="abtCBI25ap2iII_cYQvI-43" vertex="1">
          <mxGeometry x="35.76366153846152" y="58.21999999999997" width="65.63" height="65.63" as="geometry" />
        </mxCell>
        <mxCell id="abtCBI25ap2iII_cYQvI-48" value="" style="shape=image;verticalLabelPosition=bottom;labelBackgroundColor=none;verticalAlign=top;aspect=fixed;imageAspect=0;image=https://cdn.discordapp.com/attachments/897132688518025257/905105965102293002/1200px-Database-icon.png;fontColor=default;" parent="abtCBI25ap2iII_cYQvI-43" vertex="1">
          <mxGeometry x="49.50772307692307" y="63.22000000000003" width="38.31" height="55.63" as="geometry" />
        </mxCell>
        <mxCell id="abtCBI25ap2iII_cYQvI-49" style="edgeStyle=orthogonalEdgeStyle;rounded=0;orthogonalLoop=1;jettySize=auto;html=1;entryX=1;entryY=0.5;entryDx=0;entryDy=0;fontSize=12;strokeColor=#A8201A;" parent="abtCBI25ap2iII_cYQvI-1" source="abtCBI25ap2iII_cYQvI-45" target="abtCBI25ap2iII_cYQvI-34" edge="1">
          <mxGeometry relative="1" as="geometry" />
        </mxCell>
        <mxCell id="abtCBI25ap2iII_cYQvI-50" value="" style="group" parent="abtCBI25ap2iII_cYQvI-1" vertex="1" connectable="0">
          <mxGeometry x="681" y="400" width="116" height="120" as="geometry" />
        </mxCell>
        <mxCell id="abtCBI25ap2iII_cYQvI-51" value="Power Module" style="rounded=0;whiteSpace=wrap;html=1;fillColor=#dae8fc;strokeColor=#6c8ebf;fontColor=default;fontStyle=1;verticalAlign=top;fontSize=15;labelBackgroundColor=none;" parent="abtCBI25ap2iII_cYQvI-50" vertex="1">
          <mxGeometry width="116" height="119.99999999999999" as="geometry" />
        </mxCell>
        <mxCell id="abtCBI25ap2iII_cYQvI-52" value="" style="group" parent="abtCBI25ap2iII_cYQvI-50" vertex="1" connectable="0">
          <mxGeometry x="26.27900000000011" y="36.52363636363644" width="63.44233333333332" height="69.20981818181818" as="geometry" />
        </mxCell>
        <mxCell id="abtCBI25ap2iII_cYQvI-53" value="" style="whiteSpace=wrap;html=1;aspect=fixed;rounded=0;sketch=0;fillColor=#dae8fc;strokeColor=#000000;strokeWidth=0.6;fontColor=default;labelBackgroundColor=none;" parent="abtCBI25ap2iII_cYQvI-52" vertex="1">
          <mxGeometry width="63.44233333333333" height="63.44233333333333" as="geometry" />
        </mxCell>
        <mxCell id="abtCBI25ap2iII_cYQvI-54" value="" style="shape=image;verticalLabelPosition=bottom;labelBackgroundColor=none;verticalAlign=top;aspect=fixed;imageAspect=0;image=https://cdn.discordapp.com/attachments/897132688518025257/905108842776514650/813774.png;fontColor=default;" parent="abtCBI25ap2iII_cYQvI-52" vertex="1">
          <mxGeometry x="2.226000000000006" y="2.3127272727271535" width="59.334" height="59.334" as="geometry" />
        </mxCell>
        <mxCell id="abtCBI25ap2iII_cYQvI-55" style="edgeStyle=orthogonalEdgeStyle;rounded=0;orthogonalLoop=1;jettySize=auto;html=1;entryX=0.921;entryY=1.008;entryDx=0;entryDy=0;entryPerimeter=0;fontSize=15;strokeColor=#A8201A;" parent="abtCBI25ap2iII_cYQvI-1" source="abtCBI25ap2iII_cYQvI-51" target="abtCBI25ap2iII_cYQvI-3" edge="1">
          <mxGeometry relative="1" as="geometry" />
        </mxCell>
        <mxCell id="abtCBI25ap2iII_cYQvI-58" style="edgeStyle=orthogonalEdgeStyle;rounded=1;orthogonalLoop=1;jettySize=auto;html=1;fontSize=15;strokeColor=#A8201A;" parent="abtCBI25ap2iII_cYQvI-1" source="abtCBI25ap2iII_cYQvI-34" target="abtCBI25ap2iII_cYQvI-45" edge="1">
          <mxGeometry relative="1" as="geometry" />
        </mxCell>
        <mxCell id="jQzm8G0YJGmtn-T8Q8wB-2" value="Connect to Other Local Systems" style="ellipse;shape=cloud;whiteSpace=wrap;html=1;fillColor=#fff2cc;strokeColor=#d6b656;fontStyle=0;fontSize=10;" parent="abtCBI25ap2iII_cYQvI-1" vertex="1">
          <mxGeometry x="387.2" y="12" width="108.5" height="77" as="geometry" />
        </mxCell>
        <mxCell id="3fmPuuxfE2oby-d20rGJ-0" value="" style="group" parent="abtCBI25ap2iII_cYQvI-1" vertex="1" connectable="0">
          <mxGeometry x="101" y="134.82" width="185" height="213.37" as="geometry" />
        </mxCell>
        <mxCell id="abtCBI25ap2iII_cYQvI-6" value="&lt;div style=&quot;font-size: 17px&quot;&gt;&lt;font style=&quot;font-size: 17px&quot; size=&quot;1&quot;&gt;&lt;b style=&quot;font-size: 17px&quot;&gt;Sensors&lt;/b&gt;&lt;/font&gt;&lt;/div&gt;&lt;div style=&quot;font-size: 17px&quot;&gt;&lt;font style=&quot;font-size: 17px&quot;&gt;&lt;br style=&quot;font-size: 17px&quot;&gt;&lt;/font&gt;&lt;/div&gt;&lt;div style=&quot;font-size: 17px&quot;&gt;&lt;font style=&quot;font-size: 17px&quot;&gt;&lt;br style=&quot;font-size: 17px&quot;&gt;&lt;/font&gt;&lt;/div&gt;&lt;div style=&quot;font-size: 17px&quot;&gt;&lt;font style=&quot;font-size: 17px&quot;&gt;&lt;br style=&quot;font-size: 17px&quot;&gt;&lt;/font&gt;&lt;/div&gt;" style="rounded=0;whiteSpace=wrap;html=1;fillColor=#dae8fc;strokeColor=#6C8EBF;fontColor=default;verticalAlign=top;" parent="3fmPuuxfE2oby-d20rGJ-0" vertex="1">
          <mxGeometry width="185" height="213.37" as="geometry" />
        </mxCell>
        <mxCell id="abtCBI25ap2iII_cYQvI-7" value="" style="group" parent="3fmPuuxfE2oby-d20rGJ-0" vertex="1" connectable="0">
          <mxGeometry x="15.000000000000014" y="33.56" width="66.41000000000001" height="87.63" as="geometry" />
        </mxCell>
        <mxCell id="abtCBI25ap2iII_cYQvI-8" value="" style="whiteSpace=wrap;html=1;aspect=fixed;rounded=0;sketch=0;fillColor=#dae8fc;strokeColor=default;strokeWidth=0.6;fontColor=default;" parent="abtCBI25ap2iII_cYQvI-7" vertex="1">
          <mxGeometry width="65.63" height="65.63" as="geometry" />
        </mxCell>
        <mxCell id="abtCBI25ap2iII_cYQvI-9" value="" style="shape=image;verticalLabelPosition=bottom;labelBackgroundColor=#ffffff;verticalAlign=top;aspect=fixed;imageAspect=0;image=https://static.thenounproject.com/png/2931191-200.png;fontColor=default;strokeColor=default;" parent="abtCBI25ap2iII_cYQvI-7" vertex="1">
          <mxGeometry x="2.819999999999993" y="2.8100000000000023" width="59" height="60" as="geometry" />
        </mxCell>
        <mxCell id="abtCBI25ap2iII_cYQvI-10" value="&lt;font style=&quot;font-size: 9px;&quot;&gt;Motion Detector&lt;/font&gt;" style="text;html=1;strokeColor=none;fillColor=none;align=center;verticalAlign=middle;whiteSpace=wrap;rounded=0;sketch=0;fontColor=default;fontSize=9;strokeWidth=0.6;" parent="abtCBI25ap2iII_cYQvI-7" vertex="1">
          <mxGeometry x="0.21999999999999886" y="67.63" width="66.19" height="20" as="geometry" />
        </mxCell>
        <mxCell id="abtCBI25ap2iII_cYQvI-11" value="" style="group" parent="3fmPuuxfE2oby-d20rGJ-0" vertex="1" connectable="0">
          <mxGeometry x="13.000000000000014" y="125.37" width="66.41000000000001" height="87.63" as="geometry" />
        </mxCell>
        <mxCell id="abtCBI25ap2iII_cYQvI-12" value="" style="whiteSpace=wrap;html=1;aspect=fixed;rounded=0;sketch=0;fillColor=#dae8fc;strokeColor=default;strokeWidth=0.6;fontColor=default;" parent="abtCBI25ap2iII_cYQvI-11" vertex="1">
          <mxGeometry width="65.63" height="65.63" as="geometry" />
        </mxCell>
        <mxCell id="abtCBI25ap2iII_cYQvI-13" value="Camera" style="text;html=1;strokeColor=none;fillColor=none;align=center;verticalAlign=middle;whiteSpace=wrap;rounded=0;sketch=0;fontColor=default;fontSize=9;strokeWidth=0.6;" parent="abtCBI25ap2iII_cYQvI-11" vertex="1">
          <mxGeometry x="0.21999999999999886" y="67.63" width="66.19" height="20" as="geometry" />
        </mxCell>
        <mxCell id="abtCBI25ap2iII_cYQvI-14" value="" style="shape=image;verticalLabelPosition=bottom;labelBackgroundColor=#ffffff;verticalAlign=top;aspect=fixed;imageAspect=0;image=https://cdn.discordapp.com/attachments/897132688518025257/907346387891519528/768px-Video_camera_icon.png;" parent="abtCBI25ap2iII_cYQvI-11" vertex="1">
          <mxGeometry x="3.819999999999979" y="3.8100000000000023" width="58" height="58" as="geometry" />
        </mxCell>
        <mxCell id="abtCBI25ap2iII_cYQvI-15" value="" style="group" parent="3fmPuuxfE2oby-d20rGJ-0" vertex="1" connectable="0">
          <mxGeometry x="96" y="122.55000000000001" width="80.56000000000003" height="87.82" as="geometry" />
        </mxCell>
        <mxCell id="abtCBI25ap2iII_cYQvI-16" value="LED Failure Detector" style="text;html=1;strokeColor=none;fillColor=none;align=center;verticalAlign=middle;whiteSpace=wrap;rounded=0;sketch=0;fontColor=default;fontSize=9;strokeWidth=0.6;" parent="abtCBI25ap2iII_cYQvI-15" vertex="1">
          <mxGeometry y="67.82" width="80.56" height="20" as="geometry" />
        </mxCell>
        <mxCell id="abtCBI25ap2iII_cYQvI-17" value="" style="whiteSpace=wrap;html=1;aspect=fixed;rounded=0;sketch=0;fillColor=#dae8fc;strokeColor=default;strokeWidth=0.6;fontColor=default;" parent="abtCBI25ap2iII_cYQvI-15" vertex="1">
          <mxGeometry x="7.780000000000001" y="0.18999999999999773" width="65.63" height="65.63" as="geometry" />
        </mxCell>
        <mxCell id="abtCBI25ap2iII_cYQvI-18" value="" style="shape=image;verticalLabelPosition=bottom;labelBackgroundColor=#ffffff;verticalAlign=top;aspect=fixed;imageAspect=0;image=https://cdn.discordapp.com/attachments/897132688518025257/905213539512352788/92558-200.png;strokeColor=default;fontColor=default;" parent="abtCBI25ap2iII_cYQvI-15" vertex="1">
          <mxGeometry x="10.780000000000001" width="59" height="60" as="geometry" />
        </mxCell>
        <mxCell id="abtCBI25ap2iII_cYQvI-19" value="" style="group" parent="3fmPuuxfE2oby-d20rGJ-0" vertex="1" connectable="0">
          <mxGeometry x="93" y="33.370000000000005" width="80.56" height="87.63" as="geometry" />
        </mxCell>
        <mxCell id="abtCBI25ap2iII_cYQvI-20" value="Luminosity Sensor" style="text;html=1;strokeColor=none;fillColor=none;align=center;verticalAlign=middle;whiteSpace=wrap;rounded=0;sketch=0;fontColor=default;fontSize=9;strokeWidth=0.6;" parent="abtCBI25ap2iII_cYQvI-19" vertex="1">
          <mxGeometry y="67.63" width="80.56" height="20" as="geometry" />
        </mxCell>
        <mxCell id="abtCBI25ap2iII_cYQvI-21" value="" style="whiteSpace=wrap;html=1;aspect=fixed;rounded=0;sketch=0;fillColor=#dae8fc;strokeColor=default;strokeWidth=0.6;fontColor=default;" parent="abtCBI25ap2iII_cYQvI-19" vertex="1">
          <mxGeometry x="8.280000000000001" width="65.63" height="65.63" as="geometry" />
        </mxCell>
        <mxCell id="abtCBI25ap2iII_cYQvI-22" value="" style="shape=image;verticalLabelPosition=bottom;labelBackgroundColor=#ffffff;verticalAlign=top;aspect=fixed;imageAspect=0;image=https://user-images.githubusercontent.com/38924279/67621467-37275300-f810-11e9-8027-314c01001c58.png;strokeColor=default;fontColor=default;" parent="abtCBI25ap2iII_cYQvI-19" vertex="1">
          <mxGeometry x="10.780000000000001" y="2.8100000000000023" width="59" height="60" as="geometry" />
        </mxCell>
      </root>
    </mxGraphModel>
  </diagram>
  <diagram name="Copy of review_sys_overview" id="WfoBJ51yk45WpP75W7S5">
    <mxGraphModel dx="1422" dy="793" grid="0" gridSize="10" guides="1" tooltips="1" connect="1" arrows="1" fold="1" page="1" pageScale="1" pageWidth="850" pageHeight="1100" background="none" math="0" shadow="0">
      <root>
        <mxCell id="827rqfJJVWb09k9bonzJ-0" />
        <mxCell id="827rqfJJVWb09k9bonzJ-1" parent="827rqfJJVWb09k9bonzJ-0" />
        <mxCell id="827rqfJJVWb09k9bonzJ-101" value="" style="text;html=1;strokeColor=#d6b656;fillColor=#fff2cc;align=center;verticalAlign=middle;whiteSpace=wrap;rounded=0;sketch=0;fontStyle=1;fontColor=default;" parent="827rqfJJVWb09k9bonzJ-1" vertex="1">
          <mxGeometry x="85.99523684210527" y="15" width="100.30263157894737" height="20" as="geometry" />
        </mxCell>
        <mxCell id="827rqfJJVWb09k9bonzJ-102" value="" style="rounded=0;whiteSpace=wrap;html=1;fillColor=#fff2cc;strokeColor=#d6b656;fontColor=default;" parent="827rqfJJVWb09k9bonzJ-1" vertex="1">
          <mxGeometry x="93" y="35" width="726" height="237" as="geometry" />
        </mxCell>
        <mxCell id="827rqfJJVWb09k9bonzJ-100" value="" style="text;html=1;strokeColor=#d6b656;fillColor=#fff2cc;align=center;verticalAlign=middle;whiteSpace=wrap;rounded=0;sketch=0;fontStyle=1;fontColor=default;" parent="827rqfJJVWb09k9bonzJ-1" vertex="1">
          <mxGeometry x="77.99523684210527" y="25" width="100.30263157894737" height="20" as="geometry" />
        </mxCell>
        <mxCell id="827rqfJJVWb09k9bonzJ-99" value="" style="rounded=0;whiteSpace=wrap;html=1;fillColor=#fff2cc;strokeColor=#d6b656;fontColor=default;" parent="827rqfJJVWb09k9bonzJ-1" vertex="1">
          <mxGeometry x="82" y="45" width="726" height="237" as="geometry" />
        </mxCell>
        <mxCell id="827rqfJJVWb09k9bonzJ-2" value="" style="group;fontStyle=1" parent="827rqfJJVWb09k9bonzJ-1" vertex="1" connectable="0">
          <mxGeometry x="70" y="353" width="726" height="257" as="geometry" />
        </mxCell>
        <mxCell id="827rqfJJVWb09k9bonzJ-3" value="" style="rounded=0;whiteSpace=wrap;html=1;fillColor=#fff2cc;strokeColor=#d6b656;fontColor=default;" parent="827rqfJJVWb09k9bonzJ-2" vertex="1">
          <mxGeometry y="20" width="726" height="237" as="geometry" />
        </mxCell>
        <mxCell id="827rqfJJVWb09k9bonzJ-4" value="Base Station" style="text;html=1;strokeColor=#d6b656;fillColor=#fff2cc;align=center;verticalAlign=middle;whiteSpace=wrap;rounded=0;sketch=0;fontStyle=1;fontColor=default;" parent="827rqfJJVWb09k9bonzJ-2" vertex="1">
          <mxGeometry x="0.31523684210526154" width="100.30263157894737" height="20" as="geometry" />
        </mxCell>
        <mxCell id="827rqfJJVWb09k9bonzJ-5" style="edgeStyle=orthogonalEdgeStyle;rounded=1;orthogonalLoop=1;jettySize=auto;html=1;exitX=0.5;exitY=1;exitDx=0;exitDy=0;entryX=0.5;entryY=0;entryDx=0;entryDy=0;fontSize=10;strokeColor=#A8201A;" parent="827rqfJJVWb09k9bonzJ-2" source="827rqfJJVWb09k9bonzJ-6" target="827rqfJJVWb09k9bonzJ-8" edge="1">
          <mxGeometry relative="1" as="geometry">
            <Array as="points">
              <mxPoint x="371" y="76" />
              <mxPoint x="371" y="76" />
            </Array>
          </mxGeometry>
        </mxCell>
        <mxCell id="827rqfJJVWb09k9bonzJ-6" value="Wi-Fi Module" style="text;html=1;strokeColor=#b85450;fillColor=#f8cecc;align=center;verticalAlign=middle;whiteSpace=wrap;rounded=0;sketch=0;fontSize=13;strokeWidth=1;fontStyle=1" parent="827rqfJJVWb09k9bonzJ-2" vertex="1">
          <mxGeometry x="281.57" y="33.18" width="179.55" height="40" as="geometry" />
        </mxCell>
        <mxCell id="827rqfJJVWb09k9bonzJ-7" style="edgeStyle=orthogonalEdgeStyle;rounded=1;orthogonalLoop=1;jettySize=auto;html=1;exitX=0.5;exitY=0;exitDx=0;exitDy=0;entryX=0.5;entryY=1;entryDx=0;entryDy=0;fontSize=10;strokeColor=#A8201A;" parent="827rqfJJVWb09k9bonzJ-2" source="827rqfJJVWb09k9bonzJ-8" target="827rqfJJVWb09k9bonzJ-6" edge="1">
          <mxGeometry relative="1" as="geometry" />
        </mxCell>
        <mxCell id="827rqfJJVWb09k9bonzJ-8" value="&lt;div&gt;&lt;font size=&quot;1&quot;&gt;&lt;b style=&quot;font-size: 17px&quot;&gt;Controller&lt;/b&gt;&lt;/font&gt;&lt;/div&gt;&lt;div&gt;&lt;br&gt;&lt;/div&gt;" style="rounded=0;whiteSpace=wrap;html=1;fillColor=#f8cecc;strokeColor=#b85450;fontColor=default;verticalAlign=top;" parent="827rqfJJVWb09k9bonzJ-2" vertex="1">
          <mxGeometry x="281.57" y="97.76" width="179.99999999999994" height="145.99999999999997" as="geometry" />
        </mxCell>
        <mxCell id="827rqfJJVWb09k9bonzJ-9" value="" style="shape=image;verticalLabelPosition=bottom;labelBackgroundColor=#ffffff;verticalAlign=top;aspect=fixed;imageAspect=0;image=https://cdn.discordapp.com/attachments/897132688518025257/905244486689517719/Raspi-PGB001.png;fontColor=default;" parent="827rqfJJVWb09k9bonzJ-2" vertex="1">
          <mxGeometry x="323.7799999999999" y="138.99881656804732" width="93.79420118343194" height="83.51372781065088" as="geometry" />
        </mxCell>
        <mxCell id="827rqfJJVWb09k9bonzJ-10" value="" style="group" parent="827rqfJJVWb09k9bonzJ-2" vertex="1" connectable="0">
          <mxGeometry x="517" y="73.18" width="180" height="130.63" as="geometry" />
        </mxCell>
        <mxCell id="827rqfJJVWb09k9bonzJ-11" value="" style="group" parent="827rqfJJVWb09k9bonzJ-10" vertex="1" connectable="0">
          <mxGeometry width="180" height="130.63" as="geometry" />
        </mxCell>
        <mxCell id="827rqfJJVWb09k9bonzJ-12" value="&lt;div style=&quot;font-size: 17px;&quot;&gt;&lt;font style=&quot;font-size: 17px;&quot;&gt;&lt;b style=&quot;font-size: 17px;&quot;&gt;Lamp&lt;/b&gt;&lt;/font&gt;&lt;/div&gt;" style="rounded=0;whiteSpace=wrap;html=1;fillColor=#dae8fc;strokeColor=#6c8ebf;fontColor=default;fontSize=17;verticalAlign=top;" parent="827rqfJJVWb09k9bonzJ-11" vertex="1">
          <mxGeometry width="180" height="130.63" as="geometry" />
        </mxCell>
        <mxCell id="827rqfJJVWb09k9bonzJ-13" value="Dimmable LED lamp" style="text;html=1;strokeColor=none;fillColor=none;align=center;verticalAlign=middle;whiteSpace=wrap;rounded=0;sketch=0;fontSize=9;fontColor=default;" parent="827rqfJJVWb09k9bonzJ-11" vertex="1">
          <mxGeometry x="25" y="98.63" width="130" height="30" as="geometry" />
        </mxCell>
        <mxCell id="827rqfJJVWb09k9bonzJ-14" value="" style="whiteSpace=wrap;html=1;aspect=fixed;rounded=0;sketch=0;fillColor=#dae8fc;strokeColor=#000000;strokeWidth=0.6;fontColor=default;" parent="827rqfJJVWb09k9bonzJ-11" vertex="1">
          <mxGeometry x="59.319999999999936" y="32.19" width="65.63" height="65.63" as="geometry" />
        </mxCell>
        <mxCell id="827rqfJJVWb09k9bonzJ-15" value="" style="shape=image;verticalLabelPosition=bottom;labelBackgroundColor=#ffffff;verticalAlign=top;aspect=fixed;imageAspect=0;image=https://cdn-icons-png.flaticon.com/512/75/75384.png;fontColor=default;" parent="827rqfJJVWb09k9bonzJ-11" vertex="1">
          <mxGeometry x="63.35000000000002" y="36.22000000000003" width="57.56" height="57.56" as="geometry" />
        </mxCell>
        <mxCell id="827rqfJJVWb09k9bonzJ-16" value="" style="shape=image;verticalLabelPosition=bottom;labelBackgroundColor=#ffffff;verticalAlign=top;aspect=fixed;imageAspect=0;image=https://cdn.discordapp.com/attachments/897132688518025257/905104490057838683/847px-Wireless-icon.png;fontColor=default;rotation=-180;" parent="827rqfJJVWb09k9bonzJ-2" vertex="1">
          <mxGeometry x="354.99999999999994" y="-14" width="33.13" height="30" as="geometry" />
        </mxCell>
        <mxCell id="827rqfJJVWb09k9bonzJ-17" value="" style="group;strokeColor=#6c8ebf;fillColor=#dae8fc;container=0;" parent="827rqfJJVWb09k9bonzJ-1" vertex="1" connectable="0">
          <mxGeometry x="100" y="384.82" width="185" height="213.37" as="geometry" />
        </mxCell>
        <mxCell id="827rqfJJVWb09k9bonzJ-18" style="edgeStyle=orthogonalEdgeStyle;rounded=0;orthogonalLoop=1;jettySize=auto;html=1;strokeColor=#A8201A;" parent="827rqfJJVWb09k9bonzJ-1" edge="1">
          <mxGeometry relative="1" as="geometry">
            <Array as="points">
              <mxPoint x="548" y="495" />
              <mxPoint x="548" y="495" />
            </Array>
            <mxPoint x="588" y="495" as="targetPoint" />
            <mxPoint x="532" y="495" as="sourcePoint" />
          </mxGeometry>
        </mxCell>
        <mxCell id="827rqfJJVWb09k9bonzJ-19" style="edgeStyle=orthogonalEdgeStyle;rounded=0;orthogonalLoop=1;jettySize=auto;html=1;entryX=0.668;entryY=-0.031;entryDx=0;entryDy=0;entryPerimeter=0;fontSize=12;strokeColor=#A8201A;" parent="827rqfJJVWb09k9bonzJ-1" target="827rqfJJVWb09k9bonzJ-33" edge="1">
          <mxGeometry relative="1" as="geometry">
            <mxPoint x="441" y="596" as="sourcePoint" />
          </mxGeometry>
        </mxCell>
        <mxCell id="827rqfJJVWb09k9bonzJ-20" style="edgeStyle=orthogonalEdgeStyle;rounded=0;orthogonalLoop=1;jettySize=auto;html=1;exitX=1;exitY=0.5;exitDx=0;exitDy=0;strokeColor=#A8201A;" parent="827rqfJJVWb09k9bonzJ-1" source="827rqfJJVWb09k9bonzJ-48" edge="1">
          <mxGeometry relative="1" as="geometry">
            <mxPoint x="351" y="495" as="targetPoint" />
            <Array as="points">
              <mxPoint x="285" y="495" />
            </Array>
          </mxGeometry>
        </mxCell>
        <mxCell id="827rqfJJVWb09k9bonzJ-21" value="" style="group" parent="827rqfJJVWb09k9bonzJ-1" vertex="1" connectable="0">
          <mxGeometry x="70" y="630.2" width="268" height="138" as="geometry" />
        </mxCell>
        <mxCell id="827rqfJJVWb09k9bonzJ-22" value="&lt;font style=&quot;font-size: 16px&quot;&gt;&lt;font style=&quot;font-size: 12px&quot;&gt;Remote Client&lt;/font&gt;&lt;br&gt;&lt;/font&gt;" style="text;html=1;strokeColor=#6c8ebf;fillColor=#dae8fc;align=center;verticalAlign=middle;whiteSpace=wrap;rounded=0;sketch=0;fontStyle=1;" parent="827rqfJJVWb09k9bonzJ-21" vertex="1">
          <mxGeometry width="105" height="20" as="geometry" />
        </mxCell>
        <mxCell id="827rqfJJVWb09k9bonzJ-23" value="" style="rounded=0;whiteSpace=wrap;html=1;fillColor=#dae8fc;strokeColor=#6c8ebf;fontColor=default;verticalAlign=top;fontStyle=1;fontSize=18;labelBackgroundColor=none;" parent="827rqfJJVWb09k9bonzJ-21" vertex="1">
          <mxGeometry y="20" width="268" height="118" as="geometry" />
        </mxCell>
        <mxCell id="827rqfJJVWb09k9bonzJ-24" value="" style="group;labelBackgroundColor=none;fontColor=default;" parent="827rqfJJVWb09k9bonzJ-21" vertex="1" connectable="0">
          <mxGeometry x="10.000000000000057" y="28" width="117.72" height="100" as="geometry" />
        </mxCell>
        <mxCell id="827rqfJJVWb09k9bonzJ-25" value="MobileAPP" style="rounded=0;whiteSpace=wrap;html=1;fillColor=#dae8fc;strokeColor=#6c8ebf;fontColor=default;verticalAlign=top;fontStyle=1;fontSize=18;labelBackgroundColor=none;" parent="827rqfJJVWb09k9bonzJ-24" vertex="1">
          <mxGeometry width="117.71999999999997" height="100" as="geometry" />
        </mxCell>
        <mxCell id="827rqfJJVWb09k9bonzJ-26" value="" style="whiteSpace=wrap;html=1;aspect=fixed;rounded=0;sketch=0;fillColor=#dae8fc;strokeColor=#000000;strokeWidth=0.6;fontColor=default;labelBackgroundColor=none;" parent="827rqfJJVWb09k9bonzJ-24" vertex="1">
          <mxGeometry x="25.123661538461533" y="29.21999999999997" width="65.63" height="65.63" as="geometry" />
        </mxCell>
        <mxCell id="827rqfJJVWb09k9bonzJ-27" value="" style="shape=image;verticalLabelPosition=bottom;labelBackgroundColor=#ffffff;verticalAlign=top;aspect=fixed;imageAspect=0;image=https://cdn.discordapp.com/attachments/897132688518025257/907346763529199696/65680.png;" parent="827rqfJJVWb09k9bonzJ-24" vertex="1">
          <mxGeometry x="28.75999999999995" y="32.860000000000014" width="58.36" height="58.36" as="geometry" />
        </mxCell>
        <mxCell id="827rqfJJVWb09k9bonzJ-28" value="" style="group" parent="827rqfJJVWb09k9bonzJ-21" vertex="1" connectable="0">
          <mxGeometry x="140.67000000000002" y="28" width="117.72" height="100" as="geometry" />
        </mxCell>
        <mxCell id="827rqfJJVWb09k9bonzJ-29" value="Web Site" style="rounded=0;whiteSpace=wrap;html=1;fillColor=#dae8fc;strokeColor=#6c8ebf;fontColor=default;verticalAlign=top;fontStyle=1;fontSize=18;labelBackgroundColor=none;" parent="827rqfJJVWb09k9bonzJ-28" vertex="1">
          <mxGeometry width="117.71999999999997" height="100" as="geometry" />
        </mxCell>
        <mxCell id="827rqfJJVWb09k9bonzJ-30" value="" style="whiteSpace=wrap;html=1;aspect=fixed;rounded=0;sketch=0;fillColor=#dae8fc;strokeColor=#000000;strokeWidth=0.6;fontColor=default;labelBackgroundColor=none;" parent="827rqfJJVWb09k9bonzJ-28" vertex="1">
          <mxGeometry x="25.123661538461533" y="29.21999999999997" width="65.63" height="65.63" as="geometry" />
        </mxCell>
        <mxCell id="827rqfJJVWb09k9bonzJ-31" value="" style="shape=image;verticalLabelPosition=bottom;labelBackgroundColor=#ffffff;verticalAlign=top;aspect=fixed;imageAspect=0;image=https://cdn.discordapp.com/attachments/897132688518025257/907346951517900810/pictogram-4471660_1280.png;" parent="827rqfJJVWb09k9bonzJ-28" vertex="1">
          <mxGeometry x="28.99999999999997" y="32.39999999999998" width="59.72" height="59.27" as="geometry" />
        </mxCell>
        <mxCell id="827rqfJJVWb09k9bonzJ-32" value="" style="group" parent="827rqfJJVWb09k9bonzJ-1" vertex="1" connectable="0">
          <mxGeometry x="370.95" y="630.2" width="139" height="138" as="geometry" />
        </mxCell>
        <mxCell id="827rqfJJVWb09k9bonzJ-33" value="&lt;font style=&quot;font-size: 12px&quot;&gt;Remote Server&lt;/font&gt;" style="text;html=1;strokeColor=#6c8ebf;fillColor=#dae8fc;align=center;verticalAlign=middle;whiteSpace=wrap;rounded=0;sketch=0;fontStyle=1;fontSize=13;" parent="827rqfJJVWb09k9bonzJ-32" vertex="1">
          <mxGeometry width="105" height="20" as="geometry" />
        </mxCell>
        <mxCell id="827rqfJJVWb09k9bonzJ-34" value="" style="rounded=0;whiteSpace=wrap;html=1;fillColor=#dae8fc;strokeColor=#6c8ebf;fontColor=default;verticalAlign=top;fontStyle=1;fontSize=18;labelBackgroundColor=none;" parent="827rqfJJVWb09k9bonzJ-32" vertex="1">
          <mxGeometry y="20" width="139" height="118" as="geometry" />
        </mxCell>
        <mxCell id="827rqfJJVWb09k9bonzJ-35" value="&lt;font style=&quot;font-size: 18px;&quot;&gt;Database&lt;/font&gt;" style="rounded=0;whiteSpace=wrap;html=1;fillColor=#dae8fc;strokeColor=#6c8ebf;fontColor=default;verticalAlign=top;fontStyle=1;fontSize=18;labelBackgroundColor=none;" parent="827rqfJJVWb09k9bonzJ-32" vertex="1">
          <mxGeometry x="10.639999999999986" y="29" width="117.71999999999997" height="100" as="geometry" />
        </mxCell>
        <mxCell id="827rqfJJVWb09k9bonzJ-36" value="" style="whiteSpace=wrap;html=1;aspect=fixed;rounded=0;sketch=0;fillColor=#dae8fc;strokeColor=#000000;strokeWidth=0.6;fontColor=default;labelBackgroundColor=none;" parent="827rqfJJVWb09k9bonzJ-32" vertex="1">
          <mxGeometry x="35.76366153846152" y="58.21999999999997" width="65.63" height="65.63" as="geometry" />
        </mxCell>
        <mxCell id="827rqfJJVWb09k9bonzJ-37" value="" style="shape=image;verticalLabelPosition=bottom;labelBackgroundColor=none;verticalAlign=top;aspect=fixed;imageAspect=0;image=https://cdn.discordapp.com/attachments/897132688518025257/905105965102293002/1200px-Database-icon.png;fontColor=default;" parent="827rqfJJVWb09k9bonzJ-32" vertex="1">
          <mxGeometry x="49.50772307692307" y="63.22000000000003" width="38.31" height="55.63" as="geometry" />
        </mxCell>
        <mxCell id="827rqfJJVWb09k9bonzJ-38" style="edgeStyle=orthogonalEdgeStyle;rounded=0;orthogonalLoop=1;jettySize=auto;html=1;entryX=1;entryY=0.5;entryDx=0;entryDy=0;fontSize=12;strokeColor=#A8201A;" parent="827rqfJJVWb09k9bonzJ-1" source="827rqfJJVWb09k9bonzJ-34" target="827rqfJJVWb09k9bonzJ-23" edge="1">
          <mxGeometry relative="1" as="geometry" />
        </mxCell>
        <mxCell id="827rqfJJVWb09k9bonzJ-39" value="" style="group" parent="827rqfJJVWb09k9bonzJ-1" vertex="1" connectable="0">
          <mxGeometry x="680" y="648.2" width="116" height="120" as="geometry" />
        </mxCell>
        <mxCell id="827rqfJJVWb09k9bonzJ-40" value="Power Grid" style="rounded=0;whiteSpace=wrap;html=1;fillColor=#dae8fc;strokeColor=#6c8ebf;fontColor=default;fontStyle=1;verticalAlign=top;fontSize=15;labelBackgroundColor=none;" parent="827rqfJJVWb09k9bonzJ-39" vertex="1">
          <mxGeometry width="116" height="119.99999999999999" as="geometry" />
        </mxCell>
        <mxCell id="827rqfJJVWb09k9bonzJ-41" value="" style="group" parent="827rqfJJVWb09k9bonzJ-39" vertex="1" connectable="0">
          <mxGeometry x="26.27900000000011" y="36.52363636363644" width="63.44233333333332" height="69.20981818181818" as="geometry" />
        </mxCell>
        <mxCell id="827rqfJJVWb09k9bonzJ-42" value="" style="whiteSpace=wrap;html=1;aspect=fixed;rounded=0;sketch=0;fillColor=#dae8fc;strokeColor=#000000;strokeWidth=0.6;fontColor=default;labelBackgroundColor=none;" parent="827rqfJJVWb09k9bonzJ-41" vertex="1">
          <mxGeometry width="63.44233333333333" height="63.44233333333333" as="geometry" />
        </mxCell>
        <mxCell id="827rqfJJVWb09k9bonzJ-43" value="" style="shape=image;verticalLabelPosition=bottom;labelBackgroundColor=none;verticalAlign=top;aspect=fixed;imageAspect=0;image=https://cdn.discordapp.com/attachments/897132688518025257/905108842776514650/813774.png;fontColor=default;" parent="827rqfJJVWb09k9bonzJ-41" vertex="1">
          <mxGeometry x="2.226000000000006" y="2.3127272727271535" width="59.334" height="59.334" as="geometry" />
        </mxCell>
        <mxCell id="827rqfJJVWb09k9bonzJ-44" style="edgeStyle=orthogonalEdgeStyle;rounded=0;orthogonalLoop=1;jettySize=auto;html=1;entryX=0.92;entryY=1;entryDx=0;entryDy=0;entryPerimeter=0;fontSize=15;strokeColor=#A8201A;" parent="827rqfJJVWb09k9bonzJ-1" source="827rqfJJVWb09k9bonzJ-40" target="827rqfJJVWb09k9bonzJ-3" edge="1">
          <mxGeometry relative="1" as="geometry">
            <Array as="points">
              <mxPoint x="738" y="625" />
              <mxPoint x="738" y="625" />
            </Array>
          </mxGeometry>
        </mxCell>
        <mxCell id="827rqfJJVWb09k9bonzJ-45" style="edgeStyle=orthogonalEdgeStyle;rounded=1;orthogonalLoop=1;jettySize=auto;html=1;fontSize=15;strokeColor=#A8201A;" parent="827rqfJJVWb09k9bonzJ-1" source="827rqfJJVWb09k9bonzJ-23" target="827rqfJJVWb09k9bonzJ-34" edge="1">
          <mxGeometry relative="1" as="geometry" />
        </mxCell>
        <mxCell id="827rqfJJVWb09k9bonzJ-47" value="" style="group" parent="827rqfJJVWb09k9bonzJ-1" vertex="1" connectable="0">
          <mxGeometry x="100" y="384.82" width="185" height="213.37" as="geometry" />
        </mxCell>
        <mxCell id="827rqfJJVWb09k9bonzJ-48" value="&lt;div style=&quot;font-size: 17px&quot;&gt;&lt;font style=&quot;font-size: 17px&quot; size=&quot;1&quot;&gt;&lt;b style=&quot;font-size: 17px&quot;&gt;Sensors&lt;/b&gt;&lt;/font&gt;&lt;/div&gt;&lt;div style=&quot;font-size: 17px&quot;&gt;&lt;font style=&quot;font-size: 17px&quot;&gt;&lt;br style=&quot;font-size: 17px&quot;&gt;&lt;/font&gt;&lt;/div&gt;&lt;div style=&quot;font-size: 17px&quot;&gt;&lt;font style=&quot;font-size: 17px&quot;&gt;&lt;br style=&quot;font-size: 17px&quot;&gt;&lt;/font&gt;&lt;/div&gt;&lt;div style=&quot;font-size: 17px&quot;&gt;&lt;font style=&quot;font-size: 17px&quot;&gt;&lt;br style=&quot;font-size: 17px&quot;&gt;&lt;/font&gt;&lt;/div&gt;" style="rounded=0;whiteSpace=wrap;html=1;fillColor=#dae8fc;strokeColor=#6C8EBF;fontColor=default;verticalAlign=top;" parent="827rqfJJVWb09k9bonzJ-47" vertex="1">
          <mxGeometry width="185" height="213.37" as="geometry" />
        </mxCell>
        <mxCell id="827rqfJJVWb09k9bonzJ-49" value="" style="group" parent="827rqfJJVWb09k9bonzJ-47" vertex="1" connectable="0">
          <mxGeometry x="15.000000000000014" y="33.56" width="66.41000000000001" height="87.63" as="geometry" />
        </mxCell>
        <mxCell id="827rqfJJVWb09k9bonzJ-50" value="" style="whiteSpace=wrap;html=1;aspect=fixed;rounded=0;sketch=0;fillColor=#dae8fc;strokeColor=default;strokeWidth=0.6;fontColor=default;" parent="827rqfJJVWb09k9bonzJ-49" vertex="1">
          <mxGeometry width="65.63" height="65.63" as="geometry" />
        </mxCell>
        <mxCell id="827rqfJJVWb09k9bonzJ-51" value="" style="shape=image;verticalLabelPosition=bottom;labelBackgroundColor=#ffffff;verticalAlign=top;aspect=fixed;imageAspect=0;image=https://static.thenounproject.com/png/2931191-200.png;fontColor=default;strokeColor=default;" parent="827rqfJJVWb09k9bonzJ-49" vertex="1">
          <mxGeometry x="2.819999999999993" y="2.8100000000000023" width="59" height="60" as="geometry" />
        </mxCell>
        <mxCell id="827rqfJJVWb09k9bonzJ-52" value="&lt;font style=&quot;font-size: 9px;&quot;&gt;Motion Detector&lt;/font&gt;" style="text;html=1;strokeColor=none;fillColor=none;align=center;verticalAlign=middle;whiteSpace=wrap;rounded=0;sketch=0;fontColor=default;fontSize=9;strokeWidth=0.6;" parent="827rqfJJVWb09k9bonzJ-49" vertex="1">
          <mxGeometry x="0.21999999999999886" y="67.63" width="66.19" height="20" as="geometry" />
        </mxCell>
        <mxCell id="827rqfJJVWb09k9bonzJ-53" value="" style="group" parent="827rqfJJVWb09k9bonzJ-47" vertex="1" connectable="0">
          <mxGeometry x="13.000000000000014" y="125.37" width="66.41000000000001" height="87.63" as="geometry" />
        </mxCell>
        <mxCell id="827rqfJJVWb09k9bonzJ-54" value="" style="whiteSpace=wrap;html=1;aspect=fixed;rounded=0;sketch=0;fillColor=#dae8fc;strokeColor=default;strokeWidth=0.6;fontColor=default;" parent="827rqfJJVWb09k9bonzJ-53" vertex="1">
          <mxGeometry width="65.63" height="65.63" as="geometry" />
        </mxCell>
        <mxCell id="827rqfJJVWb09k9bonzJ-55" value="Camera" style="text;html=1;strokeColor=none;fillColor=none;align=center;verticalAlign=middle;whiteSpace=wrap;rounded=0;sketch=0;fontColor=default;fontSize=9;strokeWidth=0.6;" parent="827rqfJJVWb09k9bonzJ-53" vertex="1">
          <mxGeometry x="0.21999999999999886" y="67.63" width="66.19" height="20" as="geometry" />
        </mxCell>
        <mxCell id="827rqfJJVWb09k9bonzJ-56" value="" style="shape=image;verticalLabelPosition=bottom;labelBackgroundColor=#ffffff;verticalAlign=top;aspect=fixed;imageAspect=0;image=https://cdn.discordapp.com/attachments/897132688518025257/907346387891519528/768px-Video_camera_icon.png;" parent="827rqfJJVWb09k9bonzJ-53" vertex="1">
          <mxGeometry x="3.819999999999979" y="3.8100000000000023" width="58" height="58" as="geometry" />
        </mxCell>
        <mxCell id="827rqfJJVWb09k9bonzJ-57" value="" style="group" parent="827rqfJJVWb09k9bonzJ-47" vertex="1" connectable="0">
          <mxGeometry x="96" y="122.55000000000001" width="80.56000000000003" height="87.82" as="geometry" />
        </mxCell>
        <mxCell id="827rqfJJVWb09k9bonzJ-58" value="LED Failure Detector" style="text;html=1;strokeColor=none;fillColor=none;align=center;verticalAlign=middle;whiteSpace=wrap;rounded=0;sketch=0;fontColor=default;fontSize=9;strokeWidth=0.6;" parent="827rqfJJVWb09k9bonzJ-57" vertex="1">
          <mxGeometry y="67.82" width="80.56" height="20" as="geometry" />
        </mxCell>
        <mxCell id="827rqfJJVWb09k9bonzJ-59" value="" style="whiteSpace=wrap;html=1;aspect=fixed;rounded=0;sketch=0;fillColor=#dae8fc;strokeColor=default;strokeWidth=0.6;fontColor=default;" parent="827rqfJJVWb09k9bonzJ-57" vertex="1">
          <mxGeometry x="7.780000000000001" y="0.18999999999999773" width="65.63" height="65.63" as="geometry" />
        </mxCell>
        <mxCell id="827rqfJJVWb09k9bonzJ-60" value="" style="shape=image;verticalLabelPosition=bottom;labelBackgroundColor=#ffffff;verticalAlign=top;aspect=fixed;imageAspect=0;image=https://cdn.discordapp.com/attachments/897132688518025257/905213539512352788/92558-200.png;strokeColor=default;fontColor=default;" parent="827rqfJJVWb09k9bonzJ-57" vertex="1">
          <mxGeometry x="10.780000000000001" width="59" height="60" as="geometry" />
        </mxCell>
        <mxCell id="827rqfJJVWb09k9bonzJ-61" value="" style="group" parent="827rqfJJVWb09k9bonzJ-47" vertex="1" connectable="0">
          <mxGeometry x="93" y="33.370000000000005" width="80.56" height="87.63" as="geometry" />
        </mxCell>
        <mxCell id="827rqfJJVWb09k9bonzJ-62" value="Luminosity Sensor" style="text;html=1;strokeColor=none;fillColor=none;align=center;verticalAlign=middle;whiteSpace=wrap;rounded=0;sketch=0;fontColor=default;fontSize=9;strokeWidth=0.6;" parent="827rqfJJVWb09k9bonzJ-61" vertex="1">
          <mxGeometry y="67.63" width="80.56" height="20" as="geometry" />
        </mxCell>
        <mxCell id="827rqfJJVWb09k9bonzJ-63" value="" style="whiteSpace=wrap;html=1;aspect=fixed;rounded=0;sketch=0;fillColor=#dae8fc;strokeColor=default;strokeWidth=0.6;fontColor=default;" parent="827rqfJJVWb09k9bonzJ-61" vertex="1">
          <mxGeometry x="8.280000000000001" width="65.63" height="65.63" as="geometry" />
        </mxCell>
        <mxCell id="827rqfJJVWb09k9bonzJ-64" value="" style="shape=image;verticalLabelPosition=bottom;labelBackgroundColor=#ffffff;verticalAlign=top;aspect=fixed;imageAspect=0;image=https://user-images.githubusercontent.com/38924279/67621467-37275300-f810-11e9-8027-314c01001c58.png;strokeColor=default;fontColor=default;" parent="827rqfJJVWb09k9bonzJ-61" vertex="1">
          <mxGeometry x="10.780000000000001" y="2.8100000000000023" width="59" height="60" as="geometry" />
        </mxCell>
        <mxCell id="827rqfJJVWb09k9bonzJ-66" value="" style="rounded=0;whiteSpace=wrap;html=1;fillColor=#fff2cc;strokeColor=#d6b656;fontColor=default;" parent="827rqfJJVWb09k9bonzJ-1" vertex="1">
          <mxGeometry x="70" y="55" width="726" height="237" as="geometry" />
        </mxCell>
        <mxCell id="827rqfJJVWb09k9bonzJ-67" value="Local System" style="text;html=1;strokeColor=#d6b656;fillColor=#fff2cc;align=center;verticalAlign=middle;whiteSpace=wrap;rounded=0;sketch=0;fontStyle=1;fontColor=default;" parent="827rqfJJVWb09k9bonzJ-1" vertex="1">
          <mxGeometry x="70.31523684210526" y="35" width="100.30263157894737" height="20" as="geometry" />
        </mxCell>
        <mxCell id="827rqfJJVWb09k9bonzJ-104" style="edgeStyle=orthogonalEdgeStyle;rounded=1;orthogonalLoop=1;jettySize=auto;html=1;exitX=0.5;exitY=0;exitDx=0;exitDy=0;entryX=0.493;entryY=0.999;entryDx=0;entryDy=0;entryPerimeter=0;strokeColor=#A8201A;" parent="827rqfJJVWb09k9bonzJ-1" source="827rqfJJVWb09k9bonzJ-69" target="827rqfJJVWb09k9bonzJ-71" edge="1">
          <mxGeometry relative="1" as="geometry" />
        </mxCell>
        <mxCell id="827rqfJJVWb09k9bonzJ-69" value="Wi-Fi Module" style="text;html=1;strokeColor=#b85450;fillColor=#f8cecc;align=center;verticalAlign=middle;whiteSpace=wrap;rounded=0;sketch=0;fontSize=13;strokeWidth=1;fontStyle=1" parent="827rqfJJVWb09k9bonzJ-1" vertex="1">
          <mxGeometry x="350.66999999999996" y="239.37" width="179.55" height="40" as="geometry" />
        </mxCell>
        <mxCell id="827rqfJJVWb09k9bonzJ-103" style="edgeStyle=orthogonalEdgeStyle;rounded=1;orthogonalLoop=1;jettySize=auto;html=1;entryX=0.5;entryY=0;entryDx=0;entryDy=0;strokeColor=#A8201A;exitX=0.493;exitY=0.999;exitDx=0;exitDy=0;exitPerimeter=0;" parent="827rqfJJVWb09k9bonzJ-1" source="827rqfJJVWb09k9bonzJ-71" target="827rqfJJVWb09k9bonzJ-69" edge="1">
          <mxGeometry relative="1" as="geometry">
            <mxPoint x="440" y="212" as="sourcePoint" />
            <Array as="points" />
          </mxGeometry>
        </mxCell>
        <mxCell id="827rqfJJVWb09k9bonzJ-109" style="edgeStyle=orthogonalEdgeStyle;rounded=1;orthogonalLoop=1;jettySize=auto;html=1;exitX=1;exitY=0.736;exitDx=0;exitDy=0;entryX=0;entryY=0.5;entryDx=0;entryDy=0;strokeColor=#A8201A;exitPerimeter=0;" parent="827rqfJJVWb09k9bonzJ-1" source="827rqfJJVWb09k9bonzJ-71" target="827rqfJJVWb09k9bonzJ-75" edge="1">
          <mxGeometry relative="1" as="geometry">
            <Array as="points">
              <mxPoint x="555" y="173" />
              <mxPoint x="555" y="173" />
            </Array>
          </mxGeometry>
        </mxCell>
        <mxCell id="827rqfJJVWb09k9bonzJ-71" value="&lt;div&gt;&lt;font size=&quot;1&quot;&gt;&lt;b style=&quot;font-size: 17px&quot;&gt;Controller&lt;/b&gt;&lt;/font&gt;&lt;/div&gt;&lt;div&gt;&lt;br&gt;&lt;/div&gt;" style="rounded=0;whiteSpace=wrap;html=1;fillColor=#f8cecc;strokeColor=#b85450;fontColor=default;verticalAlign=top;" parent="827rqfJJVWb09k9bonzJ-1" vertex="1">
          <mxGeometry x="351.57" y="66" width="179.99999999999994" height="145.99999999999997" as="geometry" />
        </mxCell>
        <mxCell id="827rqfJJVWb09k9bonzJ-72" value="" style="shape=image;verticalLabelPosition=bottom;labelBackgroundColor=#ffffff;verticalAlign=top;aspect=fixed;imageAspect=0;image=https://cdn.discordapp.com/attachments/897132688518025257/905244486689517719/Raspi-PGB001.png;fontColor=default;" parent="827rqfJJVWb09k9bonzJ-1" vertex="1">
          <mxGeometry x="394.66999999999996" y="104.99881656804732" width="93.79420118343194" height="83.51372781065088" as="geometry" />
        </mxCell>
        <mxCell id="827rqfJJVWb09k9bonzJ-73" value="" style="group" parent="827rqfJJVWb09k9bonzJ-1" vertex="1" connectable="0">
          <mxGeometry x="587" y="108.18" width="180" height="130.63" as="geometry" />
        </mxCell>
        <mxCell id="827rqfJJVWb09k9bonzJ-74" value="" style="group" parent="827rqfJJVWb09k9bonzJ-73" vertex="1" connectable="0">
          <mxGeometry width="180" height="130.63" as="geometry" />
        </mxCell>
        <mxCell id="827rqfJJVWb09k9bonzJ-75" value="&lt;div style=&quot;font-size: 17px;&quot;&gt;&lt;font style=&quot;font-size: 17px;&quot;&gt;&lt;b style=&quot;font-size: 17px;&quot;&gt;Lamp&lt;/b&gt;&lt;/font&gt;&lt;/div&gt;" style="rounded=0;whiteSpace=wrap;html=1;fillColor=#dae8fc;strokeColor=#6c8ebf;fontColor=default;fontSize=17;verticalAlign=top;" parent="827rqfJJVWb09k9bonzJ-74" vertex="1">
          <mxGeometry width="180" height="130.63" as="geometry" />
        </mxCell>
        <mxCell id="827rqfJJVWb09k9bonzJ-76" value="Dimmable LED lamp" style="text;html=1;strokeColor=none;fillColor=none;align=center;verticalAlign=middle;whiteSpace=wrap;rounded=0;sketch=0;fontSize=9;fontColor=default;" parent="827rqfJJVWb09k9bonzJ-74" vertex="1">
          <mxGeometry x="25" y="98.63" width="130" height="30" as="geometry" />
        </mxCell>
        <mxCell id="827rqfJJVWb09k9bonzJ-77" value="" style="whiteSpace=wrap;html=1;aspect=fixed;rounded=0;sketch=0;fillColor=#dae8fc;strokeColor=#000000;strokeWidth=0.6;fontColor=default;" parent="827rqfJJVWb09k9bonzJ-74" vertex="1">
          <mxGeometry x="59.319999999999936" y="32.19" width="65.63" height="65.63" as="geometry" />
        </mxCell>
        <mxCell id="827rqfJJVWb09k9bonzJ-78" value="" style="shape=image;verticalLabelPosition=bottom;labelBackgroundColor=#ffffff;verticalAlign=top;aspect=fixed;imageAspect=0;image=https://cdn-icons-png.flaticon.com/512/75/75384.png;fontColor=default;" parent="827rqfJJVWb09k9bonzJ-74" vertex="1">
          <mxGeometry x="63.35000000000002" y="36.22000000000003" width="57.56" height="57.56" as="geometry" />
        </mxCell>
        <mxCell id="827rqfJJVWb09k9bonzJ-79" value="" style="shape=image;verticalLabelPosition=bottom;labelBackgroundColor=#ffffff;verticalAlign=top;aspect=fixed;imageAspect=0;image=https://cdn.discordapp.com/attachments/897132688518025257/905104490057838683/847px-Wireless-icon.png;fontColor=default;rotation=0;" parent="827rqfJJVWb09k9bonzJ-1" vertex="1">
          <mxGeometry x="425.00999999999993" y="298" width="33.13" height="30" as="geometry" />
        </mxCell>
        <mxCell id="827rqfJJVWb09k9bonzJ-80" value="" style="group" parent="827rqfJJVWb09k9bonzJ-1" vertex="1" connectable="0">
          <mxGeometry x="97" y="66" width="185" height="213.37" as="geometry" />
        </mxCell>
        <mxCell id="827rqfJJVWb09k9bonzJ-81" value="&lt;div style=&quot;font-size: 17px&quot;&gt;&lt;font style=&quot;font-size: 17px&quot; size=&quot;1&quot;&gt;&lt;b style=&quot;font-size: 17px&quot;&gt;Sensors&lt;/b&gt;&lt;/font&gt;&lt;/div&gt;&lt;div style=&quot;font-size: 17px&quot;&gt;&lt;font style=&quot;font-size: 17px&quot;&gt;&lt;br style=&quot;font-size: 17px&quot;&gt;&lt;/font&gt;&lt;/div&gt;&lt;div style=&quot;font-size: 17px&quot;&gt;&lt;font style=&quot;font-size: 17px&quot;&gt;&lt;br style=&quot;font-size: 17px&quot;&gt;&lt;/font&gt;&lt;/div&gt;&lt;div style=&quot;font-size: 17px&quot;&gt;&lt;font style=&quot;font-size: 17px&quot;&gt;&lt;br style=&quot;font-size: 17px&quot;&gt;&lt;/font&gt;&lt;/div&gt;" style="rounded=0;whiteSpace=wrap;html=1;fillColor=#dae8fc;strokeColor=#6C8EBF;fontColor=default;verticalAlign=top;" parent="827rqfJJVWb09k9bonzJ-80" vertex="1">
          <mxGeometry width="185" height="213.37" as="geometry" />
        </mxCell>
        <mxCell id="827rqfJJVWb09k9bonzJ-82" value="" style="group" parent="827rqfJJVWb09k9bonzJ-80" vertex="1" connectable="0">
          <mxGeometry x="15.000000000000014" y="33.56" width="66.41000000000001" height="87.63" as="geometry" />
        </mxCell>
        <mxCell id="827rqfJJVWb09k9bonzJ-83" value="" style="whiteSpace=wrap;html=1;aspect=fixed;rounded=0;sketch=0;fillColor=#dae8fc;strokeColor=default;strokeWidth=0.6;fontColor=default;" parent="827rqfJJVWb09k9bonzJ-82" vertex="1">
          <mxGeometry width="65.63" height="65.63" as="geometry" />
        </mxCell>
        <mxCell id="827rqfJJVWb09k9bonzJ-84" value="" style="shape=image;verticalLabelPosition=bottom;labelBackgroundColor=#ffffff;verticalAlign=top;aspect=fixed;imageAspect=0;image=https://static.thenounproject.com/png/2931191-200.png;fontColor=default;strokeColor=default;" parent="827rqfJJVWb09k9bonzJ-82" vertex="1">
          <mxGeometry x="2.819999999999993" y="2.8100000000000023" width="59" height="60" as="geometry" />
        </mxCell>
        <mxCell id="827rqfJJVWb09k9bonzJ-85" value="&lt;font style=&quot;font-size: 9px;&quot;&gt;Motion Detector&lt;/font&gt;" style="text;html=1;strokeColor=none;fillColor=none;align=center;verticalAlign=middle;whiteSpace=wrap;rounded=0;sketch=0;fontColor=default;fontSize=9;strokeWidth=0.6;" parent="827rqfJJVWb09k9bonzJ-82" vertex="1">
          <mxGeometry x="0.21999999999999886" y="67.63" width="66.19" height="20" as="geometry" />
        </mxCell>
        <mxCell id="827rqfJJVWb09k9bonzJ-94" value="" style="group" parent="827rqfJJVWb09k9bonzJ-80" vertex="1" connectable="0">
          <mxGeometry x="93" y="33.370000000000005" width="80.56" height="87.63" as="geometry" />
        </mxCell>
        <mxCell id="827rqfJJVWb09k9bonzJ-95" value="Luminosity Sensor" style="text;html=1;strokeColor=none;fillColor=none;align=center;verticalAlign=middle;whiteSpace=wrap;rounded=0;sketch=0;fontColor=default;fontSize=9;strokeWidth=0.6;" parent="827rqfJJVWb09k9bonzJ-94" vertex="1">
          <mxGeometry y="67.63" width="80.56" height="20" as="geometry" />
        </mxCell>
        <mxCell id="827rqfJJVWb09k9bonzJ-96" value="" style="whiteSpace=wrap;html=1;aspect=fixed;rounded=0;sketch=0;fillColor=#dae8fc;strokeColor=default;strokeWidth=0.6;fontColor=default;" parent="827rqfJJVWb09k9bonzJ-94" vertex="1">
          <mxGeometry x="8.280000000000001" width="65.63" height="65.63" as="geometry" />
        </mxCell>
        <mxCell id="827rqfJJVWb09k9bonzJ-97" value="" style="shape=image;verticalLabelPosition=bottom;labelBackgroundColor=#ffffff;verticalAlign=top;aspect=fixed;imageAspect=0;image=https://user-images.githubusercontent.com/38924279/67621467-37275300-f810-11e9-8027-314c01001c58.png;strokeColor=default;fontColor=default;" parent="827rqfJJVWb09k9bonzJ-94" vertex="1">
          <mxGeometry x="10.780000000000001" y="2.8100000000000023" width="59" height="60" as="geometry" />
        </mxCell>
        <mxCell id="827rqfJJVWb09k9bonzJ-90" value="" style="group" parent="827rqfJJVWb09k9bonzJ-80" vertex="1" connectable="0">
          <mxGeometry x="52.22" y="119.00000000000001" width="80.56000000000003" height="87.82" as="geometry" />
        </mxCell>
        <mxCell id="827rqfJJVWb09k9bonzJ-91" value="LED Failure Detector" style="text;html=1;strokeColor=none;fillColor=none;align=center;verticalAlign=middle;whiteSpace=wrap;rounded=0;sketch=0;fontColor=default;fontSize=9;strokeWidth=0.6;" parent="827rqfJJVWb09k9bonzJ-90" vertex="1">
          <mxGeometry y="71.82" width="80.56" height="20" as="geometry" />
        </mxCell>
        <mxCell id="827rqfJJVWb09k9bonzJ-92" value="" style="whiteSpace=wrap;html=1;aspect=fixed;rounded=0;sketch=0;fillColor=#dae8fc;strokeColor=default;strokeWidth=0.6;fontColor=default;" parent="827rqfJJVWb09k9bonzJ-90" vertex="1">
          <mxGeometry x="7.780000000000001" y="4.189999999999998" width="65.63" height="65.63" as="geometry" />
        </mxCell>
        <mxCell id="827rqfJJVWb09k9bonzJ-93" value="" style="shape=image;verticalLabelPosition=bottom;labelBackgroundColor=#ffffff;verticalAlign=top;aspect=fixed;imageAspect=0;image=https://cdn.discordapp.com/attachments/897132688518025257/905213539512352788/92558-200.png;strokeColor=default;fontColor=default;" parent="827rqfJJVWb09k9bonzJ-90" vertex="1">
          <mxGeometry x="10.780000000000001" y="4" width="59" height="60" as="geometry" />
        </mxCell>
        <mxCell id="827rqfJJVWb09k9bonzJ-107" style="edgeStyle=orthogonalEdgeStyle;rounded=1;orthogonalLoop=1;jettySize=auto;html=1;exitX=1;exitY=0.5;exitDx=0;exitDy=0;entryX=0.001;entryY=0.735;entryDx=0;entryDy=0;entryPerimeter=0;strokeColor=#A8201A;" parent="827rqfJJVWb09k9bonzJ-1" source="827rqfJJVWb09k9bonzJ-81" target="827rqfJJVWb09k9bonzJ-71" edge="1">
          <mxGeometry relative="1" as="geometry">
            <Array as="points">
              <mxPoint x="317" y="173" />
            </Array>
          </mxGeometry>
        </mxCell>
        <mxCell id="827rqfJJVWb09k9bonzJ-110" style="edgeStyle=orthogonalEdgeStyle;rounded=1;orthogonalLoop=1;jettySize=auto;html=1;exitX=0.5;exitY=0;exitDx=0;exitDy=0;strokeColor=#A8201A;" parent="827rqfJJVWb09k9bonzJ-1" source="827rqfJJVWb09k9bonzJ-40" target="827rqfJJVWb09k9bonzJ-66" edge="1">
          <mxGeometry relative="1" as="geometry">
            <mxPoint x="735" y="294" as="targetPoint" />
            <Array as="points">
              <mxPoint x="738" y="634" />
              <mxPoint x="816" y="634" />
              <mxPoint x="816" y="334" />
              <mxPoint x="735" y="334" />
            </Array>
          </mxGeometry>
        </mxCell>
      </root>
    </mxGraphModel>
  </diagram>
  <diagram name="sys_overview" id="-NZ0NAh4GF_eerrZ4IcQ">
    <mxGraphModel dx="1583" dy="755" grid="0" gridSize="10" guides="1" tooltips="1" connect="1" arrows="1" fold="1" page="1" pageScale="1" pageWidth="850" pageHeight="1100" background="none" math="0" shadow="0">
      <root>
        <mxCell id="IX6G-g1XB7VsH-4AL5o3-0" />
        <mxCell id="IX6G-g1XB7VsH-4AL5o3-1" parent="IX6G-g1XB7VsH-4AL5o3-0" />
        <mxCell id="IX6G-g1XB7VsH-4AL5o3-2" value="" style="group" vertex="1" connectable="0" parent="IX6G-g1XB7VsH-4AL5o3-1">
          <mxGeometry x="325" y="353" width="233" height="257" as="geometry" />
        </mxCell>
        <mxCell id="IX6G-g1XB7VsH-4AL5o3-3" value="" style="rounded=0;whiteSpace=wrap;html=1;fillColor=#fff2cc;strokeColor=#d6b656;fontColor=default;" vertex="1" parent="IX6G-g1XB7VsH-4AL5o3-2">
          <mxGeometry y="20" width="232.99999999999997" height="237" as="geometry" />
        </mxCell>
        <mxCell id="IX6G-g1XB7VsH-4AL5o3-4" value="Gateway" style="text;html=1;strokeColor=#d6b656;fillColor=#fff2cc;align=center;verticalAlign=middle;whiteSpace=wrap;rounded=0;sketch=0;fontStyle=1;fontColor=default;" vertex="1" parent="IX6G-g1XB7VsH-4AL5o3-2">
          <mxGeometry x="0.09789915966386555" width="62.55756302521008" height="20" as="geometry" />
        </mxCell>
        <mxCell id="IX6G-g1XB7VsH-4AL5o3-5" value="" style="shape=image;verticalLabelPosition=bottom;labelBackgroundColor=#ffffff;verticalAlign=top;aspect=fixed;imageAspect=0;image=https://cdn.discordapp.com/attachments/897132688518025257/905104490057838683/847px-Wireless-icon.png;fontColor=default;rotation=-180;" vertex="1" parent="IX6G-g1XB7VsH-4AL5o3-2">
          <mxGeometry x="99.99999999999994" y="-15" width="33.13" height="30" as="geometry" />
        </mxCell>
        <mxCell id="IX6G-g1XB7VsH-4AL5o3-6" value="" style="text;html=1;strokeColor=#d6b656;fillColor=#fff2cc;align=center;verticalAlign=middle;whiteSpace=wrap;rounded=0;sketch=0;fontStyle=1;fontColor=default;" vertex="1" parent="IX6G-g1XB7VsH-4AL5o3-1">
          <mxGeometry x="85.99523684210527" y="15" width="100.30263157894737" height="20" as="geometry" />
        </mxCell>
        <mxCell id="IX6G-g1XB7VsH-4AL5o3-7" value="" style="rounded=0;whiteSpace=wrap;html=1;fillColor=#fff2cc;strokeColor=#d6b656;fontColor=default;" vertex="1" parent="IX6G-g1XB7VsH-4AL5o3-1">
          <mxGeometry x="93" y="35" width="726" height="237" as="geometry" />
        </mxCell>
        <mxCell id="IX6G-g1XB7VsH-4AL5o3-8" value="" style="text;html=1;strokeColor=#d6b656;fillColor=#fff2cc;align=center;verticalAlign=middle;whiteSpace=wrap;rounded=0;sketch=0;fontStyle=1;fontColor=default;" vertex="1" parent="IX6G-g1XB7VsH-4AL5o3-1">
          <mxGeometry x="77.99523684210527" y="25" width="100.30263157894737" height="20" as="geometry" />
        </mxCell>
        <mxCell id="IX6G-g1XB7VsH-4AL5o3-9" value="" style="rounded=0;whiteSpace=wrap;html=1;fillColor=#fff2cc;strokeColor=#d6b656;fontColor=default;" vertex="1" parent="IX6G-g1XB7VsH-4AL5o3-1">
          <mxGeometry x="82" y="45" width="726" height="237" as="geometry" />
        </mxCell>
        <mxCell id="IX6G-g1XB7VsH-4AL5o3-10" value="" style="group" vertex="1" connectable="0" parent="IX6G-g1XB7VsH-4AL5o3-1">
          <mxGeometry x="107" y="444" width="139" height="138" as="geometry" />
        </mxCell>
        <mxCell id="IX6G-g1XB7VsH-4AL5o3-11" value="&lt;font style=&quot;font-size: 12px&quot;&gt;Remote Server&lt;/font&gt;" style="text;html=1;strokeColor=#6c8ebf;fillColor=#dae8fc;align=center;verticalAlign=middle;whiteSpace=wrap;rounded=0;sketch=0;fontStyle=1;fontSize=13;" vertex="1" parent="IX6G-g1XB7VsH-4AL5o3-10">
          <mxGeometry width="105" height="20" as="geometry" />
        </mxCell>
        <mxCell id="IX6G-g1XB7VsH-4AL5o3-12" value="" style="rounded=0;whiteSpace=wrap;html=1;fillColor=#dae8fc;strokeColor=#6c8ebf;fontColor=default;verticalAlign=top;fontStyle=1;fontSize=18;labelBackgroundColor=none;" vertex="1" parent="IX6G-g1XB7VsH-4AL5o3-10">
          <mxGeometry y="21" width="139" height="118" as="geometry" />
        </mxCell>
        <mxCell id="IX6G-g1XB7VsH-4AL5o3-13" value="&lt;font style=&quot;font-size: 18px;&quot;&gt;Database&lt;/font&gt;" style="rounded=0;whiteSpace=wrap;html=1;fillColor=#dae8fc;strokeColor=#6c8ebf;fontColor=default;verticalAlign=top;fontStyle=1;fontSize=18;labelBackgroundColor=none;" vertex="1" parent="IX6G-g1XB7VsH-4AL5o3-10">
          <mxGeometry x="10.639999999999986" y="29" width="117.71999999999997" height="100" as="geometry" />
        </mxCell>
        <mxCell id="IX6G-g1XB7VsH-4AL5o3-14" value="" style="whiteSpace=wrap;html=1;aspect=fixed;rounded=0;sketch=0;fillColor=#dae8fc;strokeColor=#000000;strokeWidth=0.6;fontColor=default;labelBackgroundColor=none;" vertex="1" parent="IX6G-g1XB7VsH-4AL5o3-10">
          <mxGeometry x="35.76366153846152" y="58.21999999999997" width="65.63" height="65.63" as="geometry" />
        </mxCell>
        <mxCell id="IX6G-g1XB7VsH-4AL5o3-15" value="" style="shape=image;verticalLabelPosition=bottom;labelBackgroundColor=none;verticalAlign=top;aspect=fixed;imageAspect=0;image=https://cdn.discordapp.com/attachments/897132688518025257/905105965102293002/1200px-Database-icon.png;fontColor=default;" vertex="1" parent="IX6G-g1XB7VsH-4AL5o3-10">
          <mxGeometry x="49.50772307692307" y="63.22000000000003" width="38.31" height="55.63" as="geometry" />
        </mxCell>
        <mxCell id="IX6G-g1XB7VsH-4AL5o3-16" value="" style="rounded=0;whiteSpace=wrap;html=1;fillColor=#fff2cc;strokeColor=#d6b656;fontColor=default;" vertex="1" parent="IX6G-g1XB7VsH-4AL5o3-1">
          <mxGeometry x="70" y="55" width="726" height="237" as="geometry" />
        </mxCell>
        <mxCell id="IX6G-g1XB7VsH-4AL5o3-17" value="Local System" style="text;html=1;strokeColor=#d6b656;fillColor=#fff2cc;align=center;verticalAlign=middle;whiteSpace=wrap;rounded=0;sketch=0;fontStyle=1;fontColor=default;" vertex="1" parent="IX6G-g1XB7VsH-4AL5o3-1">
          <mxGeometry x="70.31523684210526" y="35" width="100.30263157894737" height="20" as="geometry" />
        </mxCell>
        <mxCell id="IX6G-g1XB7VsH-4AL5o3-18" style="edgeStyle=orthogonalEdgeStyle;rounded=1;orthogonalLoop=1;jettySize=auto;html=1;exitX=0.5;exitY=0;exitDx=0;exitDy=0;entryX=0.493;entryY=0.999;entryDx=0;entryDy=0;entryPerimeter=0;strokeColor=#A8201A;" edge="1" parent="IX6G-g1XB7VsH-4AL5o3-1" source="IX6G-g1XB7VsH-4AL5o3-19" target="IX6G-g1XB7VsH-4AL5o3-22">
          <mxGeometry relative="1" as="geometry" />
        </mxCell>
        <mxCell id="IX6G-g1XB7VsH-4AL5o3-19" value="LoRa Module" style="text;html=1;strokeColor=#b85450;fillColor=#f8cecc;align=center;verticalAlign=middle;whiteSpace=wrap;rounded=0;sketch=0;fontSize=13;strokeWidth=1;fontStyle=1" vertex="1" parent="IX6G-g1XB7VsH-4AL5o3-1">
          <mxGeometry x="350.66999999999996" y="239.37" width="179.55" height="40" as="geometry" />
        </mxCell>
        <mxCell id="IX6G-g1XB7VsH-4AL5o3-20" style="edgeStyle=orthogonalEdgeStyle;rounded=1;orthogonalLoop=1;jettySize=auto;html=1;entryX=0.5;entryY=0;entryDx=0;entryDy=0;strokeColor=#A8201A;exitX=0.493;exitY=0.999;exitDx=0;exitDy=0;exitPerimeter=0;" edge="1" parent="IX6G-g1XB7VsH-4AL5o3-1" source="IX6G-g1XB7VsH-4AL5o3-22" target="IX6G-g1XB7VsH-4AL5o3-19">
          <mxGeometry relative="1" as="geometry">
            <mxPoint x="440" y="212" as="sourcePoint" />
            <Array as="points" />
          </mxGeometry>
        </mxCell>
        <mxCell id="IX6G-g1XB7VsH-4AL5o3-21" style="edgeStyle=orthogonalEdgeStyle;rounded=1;orthogonalLoop=1;jettySize=auto;html=1;exitX=1;exitY=0.736;exitDx=0;exitDy=0;entryX=0;entryY=0.5;entryDx=0;entryDy=0;strokeColor=#A8201A;exitPerimeter=0;" edge="1" parent="IX6G-g1XB7VsH-4AL5o3-1" source="IX6G-g1XB7VsH-4AL5o3-22" target="IX6G-g1XB7VsH-4AL5o3-26">
          <mxGeometry relative="1" as="geometry">
            <Array as="points">
              <mxPoint x="555" y="173" />
              <mxPoint x="555" y="173" />
            </Array>
          </mxGeometry>
        </mxCell>
        <mxCell id="IX6G-g1XB7VsH-4AL5o3-22" value="&lt;div&gt;&lt;font size=&quot;1&quot;&gt;&lt;b style=&quot;font-size: 17px&quot;&gt;Controller&lt;/b&gt;&lt;/font&gt;&lt;/div&gt;&lt;div&gt;&lt;br&gt;&lt;/div&gt;" style="rounded=0;whiteSpace=wrap;html=1;fillColor=#f8cecc;strokeColor=#b85450;fontColor=default;verticalAlign=top;" vertex="1" parent="IX6G-g1XB7VsH-4AL5o3-1">
          <mxGeometry x="351.57" y="66" width="179.99999999999994" height="145.99999999999997" as="geometry" />
        </mxCell>
        <mxCell id="IX6G-g1XB7VsH-4AL5o3-23" value="" style="shape=image;verticalLabelPosition=bottom;labelBackgroundColor=#ffffff;verticalAlign=top;aspect=fixed;imageAspect=0;image=https://cdn.discordapp.com/attachments/897132688518025257/905244486689517719/Raspi-PGB001.png;fontColor=default;" vertex="1" parent="IX6G-g1XB7VsH-4AL5o3-1">
          <mxGeometry x="394.66999999999996" y="104.99881656804732" width="93.79420118343194" height="83.51372781065088" as="geometry" />
        </mxCell>
        <mxCell id="IX6G-g1XB7VsH-4AL5o3-24" value="" style="group" vertex="1" connectable="0" parent="IX6G-g1XB7VsH-4AL5o3-1">
          <mxGeometry x="587" y="108.18" width="180" height="130.63" as="geometry" />
        </mxCell>
        <mxCell id="IX6G-g1XB7VsH-4AL5o3-25" value="" style="group" vertex="1" connectable="0" parent="IX6G-g1XB7VsH-4AL5o3-24">
          <mxGeometry width="180" height="130.63" as="geometry" />
        </mxCell>
        <mxCell id="IX6G-g1XB7VsH-4AL5o3-26" value="&lt;div style=&quot;font-size: 17px;&quot;&gt;&lt;font style=&quot;font-size: 17px;&quot;&gt;&lt;b style=&quot;font-size: 17px;&quot;&gt;Lamp&lt;/b&gt;&lt;/font&gt;&lt;/div&gt;" style="rounded=0;whiteSpace=wrap;html=1;fillColor=#dae8fc;strokeColor=#6c8ebf;fontColor=default;fontSize=17;verticalAlign=top;" vertex="1" parent="IX6G-g1XB7VsH-4AL5o3-25">
          <mxGeometry width="180" height="130.63" as="geometry" />
        </mxCell>
        <mxCell id="IX6G-g1XB7VsH-4AL5o3-27" value="Dimmable LED lamp" style="text;html=1;strokeColor=none;fillColor=none;align=center;verticalAlign=middle;whiteSpace=wrap;rounded=0;sketch=0;fontSize=9;fontColor=default;" vertex="1" parent="IX6G-g1XB7VsH-4AL5o3-25">
          <mxGeometry x="25" y="98.63" width="130" height="30" as="geometry" />
        </mxCell>
        <mxCell id="IX6G-g1XB7VsH-4AL5o3-28" value="" style="whiteSpace=wrap;html=1;aspect=fixed;rounded=0;sketch=0;fillColor=#dae8fc;strokeColor=#000000;strokeWidth=0.6;fontColor=default;" vertex="1" parent="IX6G-g1XB7VsH-4AL5o3-25">
          <mxGeometry x="59.319999999999936" y="32.19" width="65.63" height="65.63" as="geometry" />
        </mxCell>
        <mxCell id="IX6G-g1XB7VsH-4AL5o3-29" value="" style="shape=image;verticalLabelPosition=bottom;labelBackgroundColor=#ffffff;verticalAlign=top;aspect=fixed;imageAspect=0;image=https://cdn-icons-png.flaticon.com/512/75/75384.png;fontColor=default;" vertex="1" parent="IX6G-g1XB7VsH-4AL5o3-25">
          <mxGeometry x="63.35000000000002" y="36.22000000000003" width="57.56" height="57.56" as="geometry" />
        </mxCell>
        <mxCell id="IX6G-g1XB7VsH-4AL5o3-30" value="" style="shape=image;verticalLabelPosition=bottom;labelBackgroundColor=#ffffff;verticalAlign=top;aspect=fixed;imageAspect=0;image=https://cdn.discordapp.com/attachments/897132688518025257/905104490057838683/847px-Wireless-icon.png;fontColor=default;rotation=0;" vertex="1" parent="IX6G-g1XB7VsH-4AL5o3-1">
          <mxGeometry x="425.00999999999993" y="298" width="33.13" height="30" as="geometry" />
        </mxCell>
        <mxCell id="IX6G-g1XB7VsH-4AL5o3-31" style="edgeStyle=orthogonalEdgeStyle;rounded=1;orthogonalLoop=1;jettySize=auto;html=1;entryX=0.001;entryY=0.735;entryDx=0;entryDy=0;entryPerimeter=0;strokeColor=#A8201A;exitX=1;exitY=0.5;exitDx=0;exitDy=0;" edge="1" parent="IX6G-g1XB7VsH-4AL5o3-1" source="IX6G-g1XB7VsH-4AL5o3-33" target="IX6G-g1XB7VsH-4AL5o3-22">
          <mxGeometry relative="1" as="geometry">
            <Array as="points">
              <mxPoint x="317" y="173" />
            </Array>
            <mxPoint x="282" y="173" as="sourcePoint" />
          </mxGeometry>
        </mxCell>
        <mxCell id="IX6G-g1XB7VsH-4AL5o3-32" value="" style="group" vertex="1" connectable="0" parent="IX6G-g1XB7VsH-4AL5o3-1">
          <mxGeometry x="95" y="66" width="185" height="213.37" as="geometry" />
        </mxCell>
        <mxCell id="IX6G-g1XB7VsH-4AL5o3-33" value="&lt;div style=&quot;font-size: 17px&quot;&gt;&lt;font style=&quot;font-size: 17px&quot; size=&quot;1&quot;&gt;&lt;b style=&quot;font-size: 17px&quot;&gt;Sensors&lt;/b&gt;&lt;/font&gt;&lt;/div&gt;&lt;div style=&quot;font-size: 17px&quot;&gt;&lt;font style=&quot;font-size: 17px&quot;&gt;&lt;br style=&quot;font-size: 17px&quot;&gt;&lt;/font&gt;&lt;/div&gt;&lt;div style=&quot;font-size: 17px&quot;&gt;&lt;font style=&quot;font-size: 17px&quot;&gt;&lt;br style=&quot;font-size: 17px&quot;&gt;&lt;/font&gt;&lt;/div&gt;&lt;div style=&quot;font-size: 17px&quot;&gt;&lt;font style=&quot;font-size: 17px&quot;&gt;&lt;br style=&quot;font-size: 17px&quot;&gt;&lt;/font&gt;&lt;/div&gt;" style="rounded=0;whiteSpace=wrap;html=1;fillColor=#dae8fc;strokeColor=#6C8EBF;fontColor=default;verticalAlign=top;" vertex="1" parent="IX6G-g1XB7VsH-4AL5o3-32">
          <mxGeometry width="185" height="213.37" as="geometry" />
        </mxCell>
        <mxCell id="IX6G-g1XB7VsH-4AL5o3-34" value="" style="group" vertex="1" connectable="0" parent="IX6G-g1XB7VsH-4AL5o3-32">
          <mxGeometry x="15.000000000000014" y="33.56" width="66.41000000000001" height="87.63" as="geometry" />
        </mxCell>
        <mxCell id="IX6G-g1XB7VsH-4AL5o3-35" value="" style="whiteSpace=wrap;html=1;aspect=fixed;rounded=0;sketch=0;fillColor=#dae8fc;strokeColor=default;strokeWidth=0.6;fontColor=default;" vertex="1" parent="IX6G-g1XB7VsH-4AL5o3-34">
          <mxGeometry width="65.63" height="65.63" as="geometry" />
        </mxCell>
        <mxCell id="IX6G-g1XB7VsH-4AL5o3-36" value="" style="shape=image;verticalLabelPosition=bottom;labelBackgroundColor=#ffffff;verticalAlign=top;aspect=fixed;imageAspect=0;image=https://static.thenounproject.com/png/2931191-200.png;fontColor=default;strokeColor=default;" vertex="1" parent="IX6G-g1XB7VsH-4AL5o3-34">
          <mxGeometry x="2.819999999999993" y="2.8100000000000023" width="59" height="60" as="geometry" />
        </mxCell>
        <mxCell id="IX6G-g1XB7VsH-4AL5o3-37" value="&lt;font style=&quot;font-size: 9px;&quot;&gt;Motion Detector&lt;/font&gt;" style="text;html=1;strokeColor=none;fillColor=none;align=center;verticalAlign=middle;whiteSpace=wrap;rounded=0;sketch=0;fontColor=default;fontSize=9;strokeWidth=0.6;" vertex="1" parent="IX6G-g1XB7VsH-4AL5o3-34">
          <mxGeometry x="0.21999999999999886" y="67.63" width="66.19" height="20" as="geometry" />
        </mxCell>
        <mxCell id="IX6G-g1XB7VsH-4AL5o3-38" value="" style="group" vertex="1" connectable="0" parent="IX6G-g1XB7VsH-4AL5o3-32">
          <mxGeometry x="13.000000000000014" y="125.37" width="66.41000000000001" height="87.63" as="geometry" />
        </mxCell>
        <mxCell id="IX6G-g1XB7VsH-4AL5o3-39" value="" style="whiteSpace=wrap;html=1;aspect=fixed;rounded=0;sketch=0;fillColor=#dae8fc;strokeColor=#000000;strokeWidth=0.6;fontColor=default;" vertex="1" parent="IX6G-g1XB7VsH-4AL5o3-38">
          <mxGeometry width="65.63" height="65.63" as="geometry" />
        </mxCell>
        <mxCell id="IX6G-g1XB7VsH-4AL5o3-40" value="Camera" style="text;html=1;strokeColor=none;fillColor=none;align=center;verticalAlign=middle;whiteSpace=wrap;rounded=0;sketch=0;fontColor=default;fontSize=9;strokeWidth=0.6;" vertex="1" parent="IX6G-g1XB7VsH-4AL5o3-38">
          <mxGeometry x="0.21999999999999886" y="67.63" width="66.19" height="20" as="geometry" />
        </mxCell>
        <mxCell id="IX6G-g1XB7VsH-4AL5o3-41" value="" style="shape=image;verticalLabelPosition=bottom;labelBackgroundColor=#ffffff;verticalAlign=top;aspect=fixed;imageAspect=0;image=https://cdn.discordapp.com/attachments/897132688518025257/907346387891519528/768px-Video_camera_icon.png;" vertex="1" parent="IX6G-g1XB7VsH-4AL5o3-38">
          <mxGeometry x="3.819999999999979" y="3.8100000000000023" width="58" height="58" as="geometry" />
        </mxCell>
        <mxCell id="IX6G-g1XB7VsH-4AL5o3-42" value="" style="group" vertex="1" connectable="0" parent="IX6G-g1XB7VsH-4AL5o3-32">
          <mxGeometry x="96" y="124.55000000000001" width="80.56000000000003" height="87.82" as="geometry" />
        </mxCell>
        <mxCell id="IX6G-g1XB7VsH-4AL5o3-43" value="LED Failure Detector" style="text;html=1;strokeColor=none;fillColor=none;align=center;verticalAlign=middle;whiteSpace=wrap;rounded=0;sketch=0;fontColor=default;fontSize=9;strokeWidth=0.6;" vertex="1" parent="IX6G-g1XB7VsH-4AL5o3-42">
          <mxGeometry y="67.82" width="80.56" height="20" as="geometry" />
        </mxCell>
        <mxCell id="IX6G-g1XB7VsH-4AL5o3-44" value="" style="whiteSpace=wrap;html=1;aspect=fixed;rounded=0;sketch=0;fillColor=#dae8fc;strokeColor=#000000;strokeWidth=0.6;fontColor=default;" vertex="1" parent="IX6G-g1XB7VsH-4AL5o3-42">
          <mxGeometry x="7.780000000000001" y="0.18999999999999773" width="65.63" height="65.63" as="geometry" />
        </mxCell>
        <mxCell id="IX6G-g1XB7VsH-4AL5o3-45" value="" style="shape=image;verticalLabelPosition=bottom;labelBackgroundColor=#ffffff;verticalAlign=top;aspect=fixed;imageAspect=0;image=https://cdn.discordapp.com/attachments/897132688518025257/905213539512352788/92558-200.png;strokeColor=default;fontColor=default;" vertex="1" parent="IX6G-g1XB7VsH-4AL5o3-42">
          <mxGeometry x="10.780000000000001" width="59" height="60" as="geometry" />
        </mxCell>
        <mxCell id="IX6G-g1XB7VsH-4AL5o3-46" value="" style="group" vertex="1" connectable="0" parent="IX6G-g1XB7VsH-4AL5o3-32">
          <mxGeometry x="93" y="33.370000000000005" width="80.56" height="87.63" as="geometry" />
        </mxCell>
        <mxCell id="IX6G-g1XB7VsH-4AL5o3-47" value="Luminosity Sensor" style="text;html=1;strokeColor=none;fillColor=none;align=center;verticalAlign=middle;whiteSpace=wrap;rounded=0;sketch=0;fontColor=default;fontSize=9;strokeWidth=0.6;" vertex="1" parent="IX6G-g1XB7VsH-4AL5o3-46">
          <mxGeometry y="67.63" width="80.56" height="20" as="geometry" />
        </mxCell>
        <mxCell id="IX6G-g1XB7VsH-4AL5o3-48" value="" style="whiteSpace=wrap;html=1;aspect=fixed;rounded=0;sketch=0;fillColor=#dae8fc;strokeColor=default;strokeWidth=0.6;fontColor=default;" vertex="1" parent="IX6G-g1XB7VsH-4AL5o3-46">
          <mxGeometry x="8.280000000000001" width="65.63" height="65.63" as="geometry" />
        </mxCell>
        <mxCell id="IX6G-g1XB7VsH-4AL5o3-49" value="" style="shape=image;verticalLabelPosition=bottom;labelBackgroundColor=#ffffff;verticalAlign=top;aspect=fixed;imageAspect=0;image=https://user-images.githubusercontent.com/38924279/67621467-37275300-f810-11e9-8027-314c01001c58.png;strokeColor=default;fontColor=default;" vertex="1" parent="IX6G-g1XB7VsH-4AL5o3-46">
          <mxGeometry x="10.780000000000001" y="2.8100000000000023" width="59" height="60" as="geometry" />
        </mxCell>
        <mxCell id="IX6G-g1XB7VsH-4AL5o3-50" style="edgeStyle=orthogonalEdgeStyle;rounded=1;orthogonalLoop=1;jettySize=auto;html=1;exitX=0.5;exitY=1;exitDx=0;exitDy=0;entryX=0.5;entryY=0;entryDx=0;entryDy=0;fontSize=10;strokeColor=#A8201A;" edge="1" parent="IX6G-g1XB7VsH-4AL5o3-1" source="IX6G-g1XB7VsH-4AL5o3-51" target="IX6G-g1XB7VsH-4AL5o3-54">
          <mxGeometry relative="1" as="geometry">
            <Array as="points">
              <mxPoint x="441" y="429" />
              <mxPoint x="441" y="429" />
            </Array>
          </mxGeometry>
        </mxCell>
        <mxCell id="IX6G-g1XB7VsH-4AL5o3-51" value="LoRa Module" style="text;html=1;strokeColor=#b85450;fillColor=#f8cecc;align=center;verticalAlign=middle;whiteSpace=wrap;rounded=0;sketch=0;fontSize=13;strokeWidth=1;fontStyle=1" vertex="1" parent="IX6G-g1XB7VsH-4AL5o3-1">
          <mxGeometry x="351.57" y="386.18" width="179.55" height="40" as="geometry" />
        </mxCell>
        <mxCell id="IX6G-g1XB7VsH-4AL5o3-52" style="edgeStyle=orthogonalEdgeStyle;rounded=1;orthogonalLoop=1;jettySize=auto;html=1;exitX=0.5;exitY=0;exitDx=0;exitDy=0;entryX=0.5;entryY=1;entryDx=0;entryDy=0;fontSize=10;strokeColor=#A8201A;" edge="1" parent="IX6G-g1XB7VsH-4AL5o3-1" source="IX6G-g1XB7VsH-4AL5o3-54" target="IX6G-g1XB7VsH-4AL5o3-51">
          <mxGeometry relative="1" as="geometry" />
        </mxCell>
        <mxCell id="IX6G-g1XB7VsH-4AL5o3-69" style="edgeStyle=orthogonalEdgeStyle;rounded=1;orthogonalLoop=1;jettySize=auto;html=1;exitX=0;exitY=0.5;exitDx=0;exitDy=0;entryX=1;entryY=0.5;entryDx=0;entryDy=0;strokeColor=#A8201A;" edge="1" parent="IX6G-g1XB7VsH-4AL5o3-1" source="IX6G-g1XB7VsH-4AL5o3-54" target="IX6G-g1XB7VsH-4AL5o3-12">
          <mxGeometry relative="1" as="geometry" />
        </mxCell>
        <mxCell id="IX6G-g1XB7VsH-4AL5o3-54" value="&lt;div&gt;&lt;font size=&quot;1&quot;&gt;&lt;b style=&quot;font-size: 17px&quot;&gt;Controller&lt;/b&gt;&lt;/font&gt;&lt;/div&gt;&lt;div&gt;&lt;br&gt;&lt;/div&gt;" style="rounded=0;whiteSpace=wrap;html=1;fillColor=#f8cecc;strokeColor=#b85450;fontColor=default;verticalAlign=top;" vertex="1" parent="IX6G-g1XB7VsH-4AL5o3-1">
          <mxGeometry x="351.57" y="450.76" width="179.99999999999994" height="145.99999999999997" as="geometry" />
        </mxCell>
        <mxCell id="IX6G-g1XB7VsH-4AL5o3-55" value="" style="shape=image;verticalLabelPosition=bottom;labelBackgroundColor=#ffffff;verticalAlign=top;aspect=fixed;imageAspect=0;image=https://cdn.discordapp.com/attachments/897132688518025257/905244486689517719/Raspi-PGB001.png;fontColor=default;" vertex="1" parent="IX6G-g1XB7VsH-4AL5o3-1">
          <mxGeometry x="393.7799999999999" y="491.99881656804735" width="93.79420118343194" height="83.51372781065088" as="geometry" />
        </mxCell>
        <mxCell id="IX6G-g1XB7VsH-4AL5o3-57" value="&lt;font style=&quot;font-size: 16px&quot;&gt;&lt;font style=&quot;font-size: 12px&quot;&gt;Remote Client&lt;/font&gt;&lt;br&gt;&lt;/font&gt;" style="text;html=1;strokeColor=#6c8ebf;fillColor=#dae8fc;align=center;verticalAlign=middle;whiteSpace=wrap;rounded=0;sketch=0;fontStyle=1;" vertex="1" parent="IX6G-g1XB7VsH-4AL5o3-1">
          <mxGeometry x="107" y="627" width="105" height="20" as="geometry" />
        </mxCell>
        <mxCell id="IX6G-g1XB7VsH-4AL5o3-58" value="" style="rounded=0;whiteSpace=wrap;html=1;fillColor=#dae8fc;strokeColor=#6c8ebf;fontColor=default;verticalAlign=top;fontStyle=1;fontSize=18;labelBackgroundColor=none;" vertex="1" parent="IX6G-g1XB7VsH-4AL5o3-1">
          <mxGeometry x="107" y="647" width="257" height="117" as="geometry" />
        </mxCell>
        <mxCell id="IX6G-g1XB7VsH-4AL5o3-59" value="" style="group;labelBackgroundColor=none;fontColor=default;" vertex="1" connectable="0" parent="IX6G-g1XB7VsH-4AL5o3-1">
          <mxGeometry x="117.00000000000006" y="655" width="117.72" height="100" as="geometry" />
        </mxCell>
        <mxCell id="IX6G-g1XB7VsH-4AL5o3-60" value="MobileAPP" style="rounded=0;whiteSpace=wrap;html=1;fillColor=#dae8fc;strokeColor=#6c8ebf;fontColor=default;verticalAlign=top;fontStyle=1;fontSize=18;labelBackgroundColor=none;" vertex="1" parent="IX6G-g1XB7VsH-4AL5o3-59">
          <mxGeometry width="117.71999999999997" height="100" as="geometry" />
        </mxCell>
        <mxCell id="IX6G-g1XB7VsH-4AL5o3-61" value="" style="whiteSpace=wrap;html=1;aspect=fixed;rounded=0;sketch=0;fillColor=#dae8fc;strokeColor=#000000;strokeWidth=0.6;fontColor=default;labelBackgroundColor=none;" vertex="1" parent="IX6G-g1XB7VsH-4AL5o3-59">
          <mxGeometry x="25.123661538461533" y="29.21999999999997" width="65.63" height="65.63" as="geometry" />
        </mxCell>
        <mxCell id="IX6G-g1XB7VsH-4AL5o3-62" value="" style="shape=image;verticalLabelPosition=bottom;labelBackgroundColor=#ffffff;verticalAlign=top;aspect=fixed;imageAspect=0;image=https://cdn.discordapp.com/attachments/897132688518025257/907346763529199696/65680.png;" vertex="1" parent="IX6G-g1XB7VsH-4AL5o3-59">
          <mxGeometry x="28.75999999999995" y="32.860000000000014" width="58.36" height="58.36" as="geometry" />
        </mxCell>
        <mxCell id="IX6G-g1XB7VsH-4AL5o3-63" value="" style="group" vertex="1" connectable="0" parent="IX6G-g1XB7VsH-4AL5o3-1">
          <mxGeometry x="241" y="655" width="117.71" height="100" as="geometry" />
        </mxCell>
        <mxCell id="IX6G-g1XB7VsH-4AL5o3-64" value="Web Site" style="rounded=0;whiteSpace=wrap;html=1;fillColor=#dae8fc;strokeColor=#6c8ebf;fontColor=default;verticalAlign=top;fontStyle=1;fontSize=18;labelBackgroundColor=none;" vertex="1" parent="IX6G-g1XB7VsH-4AL5o3-63">
          <mxGeometry width="117.70999999999997" height="100" as="geometry" />
        </mxCell>
        <mxCell id="IX6G-g1XB7VsH-4AL5o3-65" value="" style="whiteSpace=wrap;html=1;aspect=fixed;rounded=0;sketch=0;fillColor=#dae8fc;strokeColor=#000000;strokeWidth=0.6;fontColor=default;labelBackgroundColor=none;" vertex="1" parent="IX6G-g1XB7VsH-4AL5o3-63">
          <mxGeometry x="25.121527350427343" y="29.21999999999997" width="65.62442490655792" height="65.62442490655792" as="geometry" />
        </mxCell>
        <mxCell id="IX6G-g1XB7VsH-4AL5o3-66" value="" style="shape=image;verticalLabelPosition=bottom;labelBackgroundColor=#ffffff;verticalAlign=top;aspect=fixed;imageAspect=0;image=https://cdn.discordapp.com/attachments/897132688518025257/907346951517900810/pictogram-4471660_1280.png;" vertex="1" parent="IX6G-g1XB7VsH-4AL5o3-63">
          <mxGeometry x="28.99753652735301" y="32.39999999999998" width="59.71492694529391" height="59.26496517159361" as="geometry" />
        </mxCell>
        <mxCell id="IX6G-g1XB7VsH-4AL5o3-70" style="edgeStyle=orthogonalEdgeStyle;rounded=1;orthogonalLoop=1;jettySize=auto;html=1;exitX=0.5;exitY=1;exitDx=0;exitDy=0;strokeColor=#A8201A;entryX=0.667;entryY=0.05;entryDx=0;entryDy=0;entryPerimeter=0;" edge="1" parent="IX6G-g1XB7VsH-4AL5o3-1" source="IX6G-g1XB7VsH-4AL5o3-12" target="IX6G-g1XB7VsH-4AL5o3-57">
          <mxGeometry relative="1" as="geometry">
            <mxPoint x="177" y="626" as="targetPoint" />
          </mxGeometry>
        </mxCell>
        <mxCell id="IX6G-g1XB7VsH-4AL5o3-71" style="edgeStyle=orthogonalEdgeStyle;rounded=1;orthogonalLoop=1;jettySize=auto;html=1;strokeColor=#A8201A;entryX=0.5;entryY=1;entryDx=0;entryDy=0;" edge="1" parent="IX6G-g1XB7VsH-4AL5o3-1" target="IX6G-g1XB7VsH-4AL5o3-12">
          <mxGeometry relative="1" as="geometry">
            <mxPoint x="177" y="627" as="sourcePoint" />
            <mxPoint x="176.25" y="582" as="targetPoint" />
            <Array as="points" />
          </mxGeometry>
        </mxCell>
        <mxCell id="IX6G-g1XB7VsH-4AL5o3-72" style="edgeStyle=orthogonalEdgeStyle;rounded=1;orthogonalLoop=1;jettySize=auto;html=1;entryX=0;entryY=0.5;entryDx=0;entryDy=0;strokeColor=#A8201A;" edge="1" parent="IX6G-g1XB7VsH-4AL5o3-1" source="IX6G-g1XB7VsH-4AL5o3-12" target="IX6G-g1XB7VsH-4AL5o3-54">
          <mxGeometry relative="1" as="geometry" />
        </mxCell>
      </root>
    </mxGraphModel>
  </diagram>
  <diagram name="local_hw_arch" id="yV4Tl3WlULae0qgzAwJa">
    <mxGraphModel dx="875" dy="417" grid="0" gridSize="7" guides="1" tooltips="1" connect="1" arrows="1" fold="1" page="1" pageScale="1" pageWidth="850" pageHeight="1100" math="0" shadow="0">
      <root>
        <mxCell id="mFuTaCtOZCncO_Q4BWWo-0" />
        <mxCell id="mFuTaCtOZCncO_Q4BWWo-1" parent="mFuTaCtOZCncO_Q4BWWo-0" />
        <mxCell id="mFuTaCtOZCncO_Q4BWWo-3" value="" style="rounded=0;whiteSpace=wrap;html=1;fillColor=#fff2cc;strokeColor=#d6b656;fontColor=default;" parent="mFuTaCtOZCncO_Q4BWWo-1" vertex="1">
          <mxGeometry x="118" y="101.2" width="720" height="400.8" as="geometry" />
        </mxCell>
        <mxCell id="mFuTaCtOZCncO_Q4BWWo-4" value="Local System" style="text;html=1;strokeColor=#d6b656;fillColor=#fff2cc;align=center;verticalAlign=middle;whiteSpace=wrap;rounded=0;sketch=0;fontStyle=1;fontColor=default;" parent="mFuTaCtOZCncO_Q4BWWo-1" vertex="1">
          <mxGeometry x="118" y="81.2" width="105" height="20" as="geometry" />
        </mxCell>
        <mxCell id="mFuTaCtOZCncO_Q4BWWo-49" value="" style="edgeStyle=orthogonalEdgeStyle;rounded=1;orthogonalLoop=1;jettySize=auto;html=1;entryX=0.5;entryY=1;entryDx=0;entryDy=0;strokeColor=#A8201A;fontSize=10;labelBackgroundColor=none;exitX=0.505;exitY=0;exitDx=0;exitDy=0;exitPerimeter=0;" parent="mFuTaCtOZCncO_Q4BWWo-1" source="mFuTaCtOZCncO_Q4BWWo-14" target="mFuTaCtOZCncO_Q4BWWo-16" edge="1">
          <mxGeometry as="geometry">
            <mxPoint x="16" as="offset" />
          </mxGeometry>
        </mxCell>
        <mxCell id="2gXWhtHGTkCs2fx3SHUD-1" value="" style="edgeStyle=orthogonalEdgeStyle;rounded=1;orthogonalLoop=1;jettySize=auto;html=1;entryX=0.5;entryY=0;entryDx=0;entryDy=0;labelBackgroundColor=none;fontSize=10;strokeColor=#A8201A;verticalAlign=middle;" parent="mFuTaCtOZCncO_Q4BWWo-1" source="mFuTaCtOZCncO_Q4BWWo-14" target="2gXWhtHGTkCs2fx3SHUD-0" edge="1">
          <mxGeometry x="-0.0092" y="-13" relative="1" as="geometry">
            <mxPoint x="26" as="offset" />
            <Array as="points">
              <mxPoint x="619" y="451" />
            </Array>
          </mxGeometry>
        </mxCell>
        <mxCell id="mFuTaCtOZCncO_Q4BWWo-14" value="Raspberry Pi 4B" style="rounded=0;whiteSpace=wrap;html=1;fillColor=#f8cecc;strokeColor=#b85450;fontColor=default;verticalAlign=top;fontStyle=1" parent="mFuTaCtOZCncO_Q4BWWo-1" vertex="1">
          <mxGeometry x="548.72" y="219" width="141.28" height="212" as="geometry" />
        </mxCell>
        <mxCell id="mFuTaCtOZCncO_Q4BWWo-43" value="" style="edgeStyle=orthogonalEdgeStyle;rounded=1;orthogonalLoop=1;jettySize=auto;html=1;entryX=0;entryY=0.114;entryDx=0;entryDy=0;strokeColor=#A8201A;entryPerimeter=0;fontSize=10;labelBackgroundColor=none;" parent="mFuTaCtOZCncO_Q4BWWo-1" source="mFuTaCtOZCncO_Q4BWWo-36" target="mFuTaCtOZCncO_Q4BWWo-14" edge="1">
          <mxGeometry as="geometry">
            <mxPoint x="1" y="-46" as="offset" />
          </mxGeometry>
        </mxCell>
        <mxCell id="mFuTaCtOZCncO_Q4BWWo-36" value="LED Failure Detector" style="text;html=1;strokeColor=#6C8EBF;fillColor=#dae8fc;align=center;verticalAlign=middle;whiteSpace=wrap;rounded=0;sketch=0;fontSize=13;strokeWidth=1;fontStyle=0" parent="mFuTaCtOZCncO_Q4BWWo-1" vertex="1">
          <mxGeometry x="336.01000000000005" y="223" width="120" height="40" as="geometry" />
        </mxCell>
        <mxCell id="mFuTaCtOZCncO_Q4BWWo-44" value="" style="edgeStyle=orthogonalEdgeStyle;rounded=1;orthogonalLoop=1;jettySize=auto;html=1;strokeColor=#A8201A;fontSize=10;labelBackgroundColor=none;verticalAlign=middle;" parent="mFuTaCtOZCncO_Q4BWWo-1" source="mFuTaCtOZCncO_Q4BWWo-34" edge="1">
          <mxGeometry as="geometry">
            <mxPoint y="-38" as="offset" />
            <mxPoint x="547" y="287" as="targetPoint" />
          </mxGeometry>
        </mxCell>
        <mxCell id="mFuTaCtOZCncO_Q4BWWo-34" value="Luminosity Sensor" style="text;html=1;strokeColor=#6C8EBF;fillColor=#dae8fc;align=center;verticalAlign=middle;whiteSpace=wrap;rounded=0;sketch=0;fontSize=13;strokeWidth=1;fontStyle=0" parent="mFuTaCtOZCncO_Q4BWWo-1" vertex="1">
          <mxGeometry x="335.99999999999994" y="269.69000000000005" width="120" height="35" as="geometry" />
        </mxCell>
        <mxCell id="mFuTaCtOZCncO_Q4BWWo-45" value="" style="edgeStyle=orthogonalEdgeStyle;rounded=1;orthogonalLoop=1;jettySize=auto;html=1;strokeColor=#A8201A;labelBackgroundColor=none;verticalAlign=middle;fontSize=10;" parent="mFuTaCtOZCncO_Q4BWWo-1" source="mFuTaCtOZCncO_Q4BWWo-35" edge="1">
          <mxGeometry as="geometry">
            <mxPoint x="550" y="332" as="targetPoint" />
            <mxPoint x="16" y="-25" as="offset" />
          </mxGeometry>
        </mxCell>
        <mxCell id="mFuTaCtOZCncO_Q4BWWo-35" value="&lt;font style=&quot;font-size: 13px;&quot;&gt;Motion Detector&lt;/font&gt;" style="text;html=1;strokeColor=#6C8EBF;fillColor=#dae8fc;align=center;verticalAlign=middle;whiteSpace=wrap;rounded=0;sketch=0;fontSize=13;strokeWidth=1;fontStyle=0" parent="mFuTaCtOZCncO_Q4BWWo-1" vertex="1">
          <mxGeometry x="335.99999999999994" y="312" width="120" height="40" as="geometry" />
        </mxCell>
        <mxCell id="mFuTaCtOZCncO_Q4BWWo-46" value="" style="edgeStyle=orthogonalEdgeStyle;rounded=1;orthogonalLoop=1;jettySize=auto;html=1;strokeColor=#A8201A;labelBackgroundColor=none;fontSize=10;exitX=1;exitY=0.5;exitDx=0;exitDy=0;" parent="mFuTaCtOZCncO_Q4BWWo-1" source="mFuTaCtOZCncO_Q4BWWo-37" edge="1">
          <mxGeometry as="geometry">
            <mxPoint x="549" y="379" as="targetPoint" />
            <Array as="points">
              <mxPoint x="549" y="379" />
            </Array>
            <mxPoint x="1" y="-26" as="offset" />
          </mxGeometry>
        </mxCell>
        <mxCell id="mFuTaCtOZCncO_Q4BWWo-37" value="Camera" style="text;html=1;strokeColor=#6C8EBF;fillColor=#dae8fc;align=center;verticalAlign=middle;whiteSpace=wrap;rounded=0;sketch=0;fontSize=13;strokeWidth=1;fontStyle=0" parent="mFuTaCtOZCncO_Q4BWWo-1" vertex="1">
          <mxGeometry x="336.57" y="359" width="120" height="40" as="geometry" />
        </mxCell>
        <mxCell id="mFuTaCtOZCncO_Q4BWWo-47" value="" style="shape=image;verticalLabelPosition=bottom;labelBackgroundColor=none;verticalAlign=top;aspect=fixed;imageAspect=0;image=https://www.okdo.com/us/wp-content/uploads/sites/8/2020/07/Board_05.png;fontColor=default;rotation=0;" parent="mFuTaCtOZCncO_Q4BWWo-1" vertex="1">
          <mxGeometry x="525.27" y="260" width="189.47" height="126.43" as="geometry" />
        </mxCell>
        <mxCell id="mFuTaCtOZCncO_Q4BWWo-16" value="&lt;div style=&quot;font-size: 15px&quot;&gt;Driver&lt;/div&gt;" style="rounded=0;whiteSpace=wrap;html=1;fillColor=#dae8fc;strokeColor=#6c8ebf;fontColor=default;fontSize=15;verticalAlign=middle;fontStyle=1;align=center;" parent="mFuTaCtOZCncO_Q4BWWo-1" vertex="1">
          <mxGeometry x="560.51" y="142" width="119" height="40" as="geometry" />
        </mxCell>
        <mxCell id="mFuTaCtOZCncO_Q4BWWo-42" value="" style="group" parent="mFuTaCtOZCncO_Q4BWWo-1" vertex="1" connectable="0">
          <mxGeometry x="740" y="112" width="90" height="100" as="geometry" />
        </mxCell>
        <mxCell id="mFuTaCtOZCncO_Q4BWWo-48" value="" style="group" parent="mFuTaCtOZCncO_Q4BWWo-42" vertex="1" connectable="0">
          <mxGeometry width="90" height="100" as="geometry" />
        </mxCell>
        <mxCell id="mFuTaCtOZCncO_Q4BWWo-6" value="&lt;font style=&quot;font-size: 15px&quot;&gt;LED&lt;font style=&quot;font-size: 15px&quot;&gt;&lt;span&gt; Lamp&lt;/span&gt;&lt;/font&gt;&lt;/font&gt;" style="rounded=0;whiteSpace=wrap;html=1;fillColor=#dae8fc;strokeColor=#6c8ebf;fontColor=default;fontSize=17;verticalAlign=top;fontStyle=1" parent="mFuTaCtOZCncO_Q4BWWo-48" vertex="1">
          <mxGeometry width="90" height="100" as="geometry" />
        </mxCell>
        <mxCell id="mFuTaCtOZCncO_Q4BWWo-24" value="" style="whiteSpace=wrap;html=1;aspect=fixed;rounded=0;sketch=0;fillColor=#dae8fc;strokeColor=#000000;strokeWidth=0.6;fontColor=default;" parent="mFuTaCtOZCncO_Q4BWWo-48" vertex="1">
          <mxGeometry x="11.61999999999989" y="24.370000000000005" width="65.63" height="65.63" as="geometry" />
        </mxCell>
        <mxCell id="mFuTaCtOZCncO_Q4BWWo-25" value="" style="shape=image;verticalLabelPosition=bottom;labelBackgroundColor=#ffffff;verticalAlign=top;aspect=fixed;imageAspect=0;image=https://cdn-icons-png.flaticon.com/512/75/75384.png;fontColor=default;" parent="mFuTaCtOZCncO_Q4BWWo-48" vertex="1">
          <mxGeometry x="15.649999999999977" y="28.400000000000034" width="57.56" height="57.56" as="geometry" />
        </mxCell>
        <mxCell id="mFuTaCtOZCncO_Q4BWWo-15" style="edgeStyle=orthogonalEdgeStyle;rounded=1;orthogonalLoop=1;jettySize=auto;html=1;labelBackgroundColor=default;fontSize=13;fontColor=default;strokeColor=#A8201A;labelBorderColor=default;entryX=0;entryY=0.5;entryDx=0;entryDy=0;" parent="mFuTaCtOZCncO_Q4BWWo-1" source="mFuTaCtOZCncO_Q4BWWo-16" target="mFuTaCtOZCncO_Q4BWWo-6" edge="1">
          <mxGeometry x="118" y="71.2" as="geometry">
            <mxPoint x="574" y="140" as="targetPoint" />
          </mxGeometry>
        </mxCell>
        <mxCell id="mFuTaCtOZCncO_Q4BWWo-22" style="edgeStyle=orthogonalEdgeStyle;rounded=1;orthogonalLoop=1;jettySize=auto;html=1;entryX=0;entryY=0.5;entryDx=0;entryDy=0;labelBackgroundColor=none;labelBorderColor=none;fontSize=10;fontColor=none;strokeColor=#A8201A;verticalAlign=middle;" parent="mFuTaCtOZCncO_Q4BWWo-1" source="mFuTaCtOZCncO_Q4BWWo-23" target="mFuTaCtOZCncO_Q4BWWo-16" edge="1">
          <mxGeometry relative="1" as="geometry">
            <Array as="points">
              <mxPoint x="290" y="320" />
              <mxPoint x="290" y="162" />
            </Array>
          </mxGeometry>
        </mxCell>
        <mxCell id="mFuTaCtOZCncO_Q4BWWo-38" style="edgeStyle=orthogonalEdgeStyle;rounded=1;orthogonalLoop=1;jettySize=auto;html=1;entryX=0;entryY=0.5;entryDx=0;entryDy=0;strokeColor=#A8201A;" parent="mFuTaCtOZCncO_Q4BWWo-1" source="mFuTaCtOZCncO_Q4BWWo-23" target="mFuTaCtOZCncO_Q4BWWo-36" edge="1">
          <mxGeometry relative="1" as="geometry">
            <Array as="points">
              <mxPoint x="290" y="320" />
              <mxPoint x="290" y="243" />
            </Array>
          </mxGeometry>
        </mxCell>
        <mxCell id="mFuTaCtOZCncO_Q4BWWo-39" style="edgeStyle=orthogonalEdgeStyle;rounded=1;orthogonalLoop=1;jettySize=auto;html=1;entryX=0;entryY=0.5;entryDx=0;entryDy=0;strokeColor=#A8201A;" parent="mFuTaCtOZCncO_Q4BWWo-1" source="mFuTaCtOZCncO_Q4BWWo-23" target="mFuTaCtOZCncO_Q4BWWo-34" edge="1">
          <mxGeometry relative="1" as="geometry">
            <Array as="points">
              <mxPoint x="290" y="320" />
              <mxPoint x="290" y="287" />
            </Array>
          </mxGeometry>
        </mxCell>
        <mxCell id="mFuTaCtOZCncO_Q4BWWo-23" value="Power Module" style="rounded=0;whiteSpace=wrap;html=1;fillColor=#dae8fc;strokeColor=#6c8ebf;fontColor=default;fontStyle=1;verticalAlign=middle;fontSize=15;" parent="mFuTaCtOZCncO_Q4BWWo-1" vertex="1">
          <mxGeometry x="147" y="293.87000000000006" width="120" height="52.63" as="geometry" />
        </mxCell>
        <mxCell id="mFuTaCtOZCncO_Q4BWWo-29" value="" style="group" parent="mFuTaCtOZCncO_Q4BWWo-1" vertex="1" connectable="0">
          <mxGeometry x="5" y="273.19" width="107" height="94" as="geometry" />
        </mxCell>
        <mxCell id="mFuTaCtOZCncO_Q4BWWo-30" value="Power Grid" style="rounded=0;whiteSpace=wrap;html=1;fillColor=#dae8fc;strokeColor=#6c8ebf;fontColor=default;fontStyle=1;verticalAlign=top;fontSize=15;" parent="mFuTaCtOZCncO_Q4BWWo-29" vertex="1">
          <mxGeometry width="107" height="94" as="geometry" />
        </mxCell>
        <mxCell id="mFuTaCtOZCncO_Q4BWWo-31" value="" style="whiteSpace=wrap;html=1;aspect=fixed;rounded=0;sketch=0;fillColor=#dae8fc;strokeColor=#000000;strokeWidth=0.6;fontColor=default;" parent="mFuTaCtOZCncO_Q4BWWo-29" vertex="1">
          <mxGeometry x="24.24441666666672" y="29.35315985130106" width="57.334758364312265" height="57.334758364312265" as="geometry" />
        </mxCell>
        <mxCell id="mFuTaCtOZCncO_Q4BWWo-32" value="" style="shape=image;verticalLabelPosition=bottom;labelBackgroundColor=#ffffff;verticalAlign=top;aspect=fixed;imageAspect=0;image=https://cdn.discordapp.com/attachments/897132688518025257/905108842776514650/813774.png;fontColor=default;" parent="mFuTaCtOZCncO_Q4BWWo-29" vertex="1">
          <mxGeometry x="26.134750000000057" y="31.205204460966492" width="53.62193308550186" height="53.62193308550186" as="geometry" />
        </mxCell>
        <mxCell id="mFuTaCtOZCncO_Q4BWWo-33" style="edgeStyle=orthogonalEdgeStyle;rounded=1;orthogonalLoop=1;jettySize=auto;html=1;entryX=0;entryY=0.5;entryDx=0;entryDy=0;strokeColor=#A8201A;exitX=1;exitY=0.5;exitDx=0;exitDy=0;" parent="mFuTaCtOZCncO_Q4BWWo-1" source="mFuTaCtOZCncO_Q4BWWo-30" target="mFuTaCtOZCncO_Q4BWWo-23" edge="1">
          <mxGeometry relative="1" as="geometry">
            <Array as="points">
              <mxPoint x="116" y="320" />
              <mxPoint x="116" y="320" />
            </Array>
          </mxGeometry>
        </mxCell>
        <mxCell id="2gXWhtHGTkCs2fx3SHUD-0" value="LoRa Module" style="text;html=1;strokeColor=#b85450;fillColor=#f8cecc;align=center;verticalAlign=middle;whiteSpace=wrap;rounded=0;sketch=0;fontSize=13;strokeWidth=1;fontStyle=1" parent="mFuTaCtOZCncO_Q4BWWo-1" vertex="1">
          <mxGeometry x="549.36" y="454" width="140.64" height="40" as="geometry" />
        </mxCell>
        <mxCell id="Zrn7XLZHATxgFnHyOBh3-2" style="edgeStyle=orthogonalEdgeStyle;rounded=1;orthogonalLoop=1;jettySize=auto;html=1;strokeColor=#A8201A;exitX=1;exitY=0.5;exitDx=0;exitDy=0;" edge="1" parent="mFuTaCtOZCncO_Q4BWWo-1" source="mFuTaCtOZCncO_Q4BWWo-23">
          <mxGeometry relative="1" as="geometry">
            <Array as="points">
              <mxPoint x="291" y="320" />
              <mxPoint x="291" y="416" />
            </Array>
            <mxPoint x="274" y="327.20000000000005" as="sourcePoint" />
            <mxPoint x="549" y="416" as="targetPoint" />
          </mxGeometry>
        </mxCell>
        <mxCell id="Zrn7XLZHATxgFnHyOBh3-6" style="edgeStyle=orthogonalEdgeStyle;rounded=1;orthogonalLoop=1;jettySize=auto;html=1;strokeColor=#A8201A;exitX=1;exitY=0.5;exitDx=0;exitDy=0;entryX=0;entryY=0.5;entryDx=0;entryDy=0;" edge="1" parent="mFuTaCtOZCncO_Q4BWWo-1" target="mFuTaCtOZCncO_Q4BWWo-35">
          <mxGeometry relative="1" as="geometry">
            <Array as="points">
              <mxPoint x="291" y="320" />
              <mxPoint x="291" y="332" />
            </Array>
            <mxPoint x="267.07" y="319.99500000000006" as="sourcePoint" />
            <mxPoint x="549.35512" y="415.61000000000007" as="targetPoint" />
          </mxGeometry>
        </mxCell>
        <mxCell id="Zrn7XLZHATxgFnHyOBh3-7" style="edgeStyle=orthogonalEdgeStyle;rounded=1;orthogonalLoop=1;jettySize=auto;html=1;strokeColor=#A8201A;exitX=1;exitY=0.5;exitDx=0;exitDy=0;entryX=0;entryY=0.5;entryDx=0;entryDy=0;" edge="1" parent="mFuTaCtOZCncO_Q4BWWo-1" target="mFuTaCtOZCncO_Q4BWWo-37">
          <mxGeometry relative="1" as="geometry">
            <Array as="points">
              <mxPoint x="291" y="320" />
              <mxPoint x="291" y="379" />
            </Array>
            <mxPoint x="267.07" y="319.99500000000006" as="sourcePoint" />
            <mxPoint x="549" y="402" as="targetPoint" />
          </mxGeometry>
        </mxCell>
        <mxCell id="13Oy-dZRf3eW46UfQbv3-0" value="" style="edgeStyle=orthogonalEdgeStyle;rounded=1;orthogonalLoop=1;jettySize=auto;html=1;entryX=0.5;entryY=1;entryDx=0;entryDy=0;labelBackgroundColor=none;fontSize=10;strokeColor=#A8201A;verticalAlign=middle;exitX=0.5;exitY=0;exitDx=0;exitDy=0;" edge="1" parent="mFuTaCtOZCncO_Q4BWWo-1" source="2gXWhtHGTkCs2fx3SHUD-0" target="mFuTaCtOZCncO_Q4BWWo-14">
          <mxGeometry x="-0.0092" y="-13" relative="1" as="geometry">
            <mxPoint x="26" as="offset" />
            <mxPoint x="626.6800000000003" y="461" as="sourcePoint" />
            <mxPoint x="626.6842105263158" y="438" as="targetPoint" />
            <Array as="points" />
          </mxGeometry>
        </mxCell>
      </root>
    </mxGraphModel>
  </diagram>
  <diagram id="VjE3OkfchiHzPY5zCAz_" name="gateway_hw_arch">
    <mxGraphModel dx="1385" dy="661" grid="0" gridSize="10" guides="1" tooltips="1" connect="1" arrows="1" fold="1" page="1" pageScale="1" pageWidth="827" pageHeight="1169" math="0" shadow="0">
      <root>
        <mxCell id="nxn5JaJCIBL9VAFoG-B1-0" />
        <mxCell id="nxn5JaJCIBL9VAFoG-B1-1" parent="nxn5JaJCIBL9VAFoG-B1-0" />
        <mxCell id="KtY4w5XEDJ_Bhj209qoo-0" value="" style="rounded=0;whiteSpace=wrap;html=1;fillColor=#fff2cc;strokeColor=#d6b656;fontColor=default;" parent="nxn5JaJCIBL9VAFoG-B1-1" vertex="1">
          <mxGeometry x="166" y="80" width="367" height="320" as="geometry" />
        </mxCell>
        <mxCell id="KtY4w5XEDJ_Bhj209qoo-1" value="&lt;div&gt;Gateway&lt;/div&gt;" style="text;html=1;strokeColor=#d6b656;fillColor=#fff2cc;align=center;verticalAlign=middle;whiteSpace=wrap;rounded=0;sketch=0;fontStyle=1;fontColor=default;" parent="nxn5JaJCIBL9VAFoG-B1-1" vertex="1">
          <mxGeometry x="166" y="60" width="105" height="20" as="geometry" />
        </mxCell>
        <mxCell id="dwU0C1t7hUscAnUNclf4-0" value="" style="edgeStyle=orthogonalEdgeStyle;rounded=0;orthogonalLoop=1;jettySize=auto;html=1;exitX=0.5;exitY=1;exitDx=0;exitDy=0;entryX=0.5;entryY=0;entryDx=0;entryDy=0;strokeColor=#A8201A;labelBackgroundColor=none;" parent="nxn5JaJCIBL9VAFoG-B1-1" source="nxn5JaJCIBL9VAFoG-B1-4" target="iBRImi9bAzXkSUNV-lgh-0" edge="1">
          <mxGeometry x="0.3532" y="43" relative="1" as="geometry">
            <mxPoint as="offset" />
          </mxGeometry>
        </mxCell>
        <mxCell id="nxn5JaJCIBL9VAFoG-B1-4" value="Raspberry Pi 4B" style="rounded=0;whiteSpace=wrap;html=1;fillColor=#f8cecc;strokeColor=#b85450;fontColor=default;verticalAlign=top;fontStyle=1" parent="nxn5JaJCIBL9VAFoG-B1-1" vertex="1">
          <mxGeometry x="360.09" y="120" width="141.28" height="160" as="geometry" />
        </mxCell>
        <mxCell id="nxn5JaJCIBL9VAFoG-B1-5" value="" style="shape=image;verticalLabelPosition=bottom;labelBackgroundColor=none;verticalAlign=top;aspect=fixed;imageAspect=0;image=https://www.okdo.com/us/wp-content/uploads/sites/8/2020/07/Board_05.png;fontColor=default;rotation=0;" parent="nxn5JaJCIBL9VAFoG-B1-1" vertex="1">
          <mxGeometry x="336" y="144" width="189.47" height="126.43" as="geometry" />
        </mxCell>
        <mxCell id="d1T0d71Net20v1dFmQiN-4" style="edgeStyle=orthogonalEdgeStyle;rounded=1;orthogonalLoop=1;jettySize=auto;html=1;entryX=0.5;entryY=1;entryDx=0;entryDy=0;strokeColor=#A8201A;" edge="1" parent="nxn5JaJCIBL9VAFoG-B1-1" source="iBRImi9bAzXkSUNV-lgh-0" target="nxn5JaJCIBL9VAFoG-B1-4">
          <mxGeometry relative="1" as="geometry" />
        </mxCell>
        <mxCell id="iBRImi9bAzXkSUNV-lgh-0" value="LoRa Module" style="text;html=1;strokeColor=#b85450;fillColor=#f8cecc;align=center;verticalAlign=middle;whiteSpace=wrap;rounded=0;sketch=0;fontSize=13;strokeWidth=1;fontStyle=1" parent="nxn5JaJCIBL9VAFoG-B1-1" vertex="1">
          <mxGeometry x="360.73" y="320" width="140.64" height="40" as="geometry" />
        </mxCell>
        <mxCell id="OdvQzrdyj1UNzLZ67pJK-7" style="edgeStyle=orthogonalEdgeStyle;rounded=1;orthogonalLoop=1;jettySize=auto;html=1;exitX=1;exitY=0.5;exitDx=0;exitDy=0;entryX=-0.001;entryY=0.605;entryDx=0;entryDy=0;entryPerimeter=0;strokeColor=#A8201A;" edge="1" parent="nxn5JaJCIBL9VAFoG-B1-1" source="OdvQzrdyj1UNzLZ67pJK-0" target="nxn5JaJCIBL9VAFoG-B1-4">
          <mxGeometry relative="1" as="geometry" />
        </mxCell>
        <mxCell id="OdvQzrdyj1UNzLZ67pJK-0" value="Power Module" style="rounded=0;whiteSpace=wrap;html=1;fillColor=#dae8fc;strokeColor=#6c8ebf;fontColor=default;fontStyle=1;verticalAlign=middle;fontSize=15;" vertex="1" parent="nxn5JaJCIBL9VAFoG-B1-1">
          <mxGeometry x="185" y="190.68000000000006" width="120" height="52.63" as="geometry" />
        </mxCell>
        <mxCell id="OdvQzrdyj1UNzLZ67pJK-1" value="" style="group" vertex="1" connectable="0" parent="nxn5JaJCIBL9VAFoG-B1-1">
          <mxGeometry x="40" y="170" width="107" height="94" as="geometry" />
        </mxCell>
        <mxCell id="OdvQzrdyj1UNzLZ67pJK-2" value="Power Grid" style="rounded=0;whiteSpace=wrap;html=1;fillColor=#dae8fc;strokeColor=#6c8ebf;fontColor=default;fontStyle=1;verticalAlign=top;fontSize=15;" vertex="1" parent="OdvQzrdyj1UNzLZ67pJK-1">
          <mxGeometry width="107" height="94" as="geometry" />
        </mxCell>
        <mxCell id="OdvQzrdyj1UNzLZ67pJK-3" value="" style="whiteSpace=wrap;html=1;aspect=fixed;rounded=0;sketch=0;fillColor=#dae8fc;strokeColor=#000000;strokeWidth=0.6;fontColor=default;" vertex="1" parent="OdvQzrdyj1UNzLZ67pJK-1">
          <mxGeometry x="24.24441666666672" y="29.35315985130106" width="57.334758364312265" height="57.334758364312265" as="geometry" />
        </mxCell>
        <mxCell id="OdvQzrdyj1UNzLZ67pJK-4" value="" style="shape=image;verticalLabelPosition=bottom;labelBackgroundColor=#ffffff;verticalAlign=top;aspect=fixed;imageAspect=0;image=https://cdn.discordapp.com/attachments/897132688518025257/905108842776514650/813774.png;fontColor=default;" vertex="1" parent="OdvQzrdyj1UNzLZ67pJK-1">
          <mxGeometry x="26.134750000000057" y="31.205204460966492" width="53.62193308550186" height="53.62193308550186" as="geometry" />
        </mxCell>
        <mxCell id="OdvQzrdyj1UNzLZ67pJK-5" style="edgeStyle=orthogonalEdgeStyle;rounded=1;orthogonalLoop=1;jettySize=auto;html=1;entryX=0;entryY=0.5;entryDx=0;entryDy=0;strokeColor=#A8201A;exitX=1;exitY=0.5;exitDx=0;exitDy=0;" edge="1" parent="nxn5JaJCIBL9VAFoG-B1-1" source="OdvQzrdyj1UNzLZ67pJK-2" target="OdvQzrdyj1UNzLZ67pJK-0">
          <mxGeometry relative="1" as="geometry">
            <Array as="points">
              <mxPoint x="154" y="216.81" />
              <mxPoint x="154" y="216.81" />
            </Array>
          </mxGeometry>
        </mxCell>
        <mxCell id="d1T0d71Net20v1dFmQiN-1" style="edgeStyle=orthogonalEdgeStyle;rounded=1;orthogonalLoop=1;jettySize=auto;html=1;strokeColor=#A8201A;" edge="1" parent="nxn5JaJCIBL9VAFoG-B1-1" source="d1T0d71Net20v1dFmQiN-0">
          <mxGeometry relative="1" as="geometry">
            <mxPoint x="501" y="217" as="targetPoint" />
          </mxGeometry>
        </mxCell>
        <mxCell id="d1T0d71Net20v1dFmQiN-0" value="&lt;div align=&quot;center&quot;&gt;Remote System&lt;/div&gt;" style="rounded=0;whiteSpace=wrap;html=1;fillColor=#dae8fc;strokeColor=#6c8ebf;fontColor=default;fontStyle=1;verticalAlign=middle;fontSize=15;" vertex="1" parent="nxn5JaJCIBL9VAFoG-B1-1">
          <mxGeometry x="553" y="190.68" width="85" height="52.63" as="geometry" />
        </mxCell>
        <mxCell id="d1T0d71Net20v1dFmQiN-2" style="edgeStyle=orthogonalEdgeStyle;rounded=1;orthogonalLoop=1;jettySize=auto;html=1;strokeColor=#A8201A;entryX=0;entryY=0.5;entryDx=0;entryDy=0;exitX=0.998;exitY=0.606;exitDx=0;exitDy=0;exitPerimeter=0;" edge="1" parent="nxn5JaJCIBL9VAFoG-B1-1" source="nxn5JaJCIBL9VAFoG-B1-4" target="d1T0d71Net20v1dFmQiN-0">
          <mxGeometry relative="1" as="geometry">
            <mxPoint x="501" y="217" as="sourcePoint" />
            <mxPoint x="553.37" y="216.86" as="targetPoint" />
          </mxGeometry>
        </mxCell>
      </root>
    </mxGraphModel>
  </diagram>
  <diagram name="local_sw_arch" id="fpag8uKSOF6jSnyfxXOz">
    <mxGraphModel dx="1146" dy="547" grid="1" gridSize="10" guides="1" tooltips="1" connect="1" arrows="1" fold="1" page="1" pageScale="1" pageWidth="850" pageHeight="1100" math="0" shadow="0">
      <root>
        <mxCell id="rTfBJTmCusdj6inRNWWQ-0" />
        <mxCell id="rTfBJTmCusdj6inRNWWQ-1" parent="rTfBJTmCusdj6inRNWWQ-0" />
        <mxCell id="rTfBJTmCusdj6inRNWWQ-2" style="edgeStyle=orthogonalEdgeStyle;rounded=1;orthogonalLoop=1;jettySize=auto;html=1;labelBackgroundColor=none;labelBorderColor=none;fontSize=13;fontColor=default;strokeColor=#A8201A;entryX=0.903;entryY=1.017;entryDx=0;entryDy=0;entryPerimeter=0;" parent="rTfBJTmCusdj6inRNWWQ-1" source="rTfBJTmCusdj6inRNWWQ-3" target="rTfBJTmCusdj6inRNWWQ-5" edge="1">
          <mxGeometry relative="1" as="geometry">
            <mxPoint x="630" y="220" as="targetPoint" />
            <Array as="points">
              <mxPoint x="621" y="230" />
              <mxPoint x="621" y="230" />
            </Array>
          </mxGeometry>
        </mxCell>
        <mxCell id="rTfBJTmCusdj6inRNWWQ-3" value="Operating System " style="rounded=1;whiteSpace=wrap;html=1;labelBackgroundColor=none;labelBorderColor=none;fontSize=13;fontColor=default;strokeColor=#9C1E18;strokeWidth=0.6;fillColor=#F19C99;align=left;verticalAlign=middle;fontStyle=1" parent="rTfBJTmCusdj6inRNWWQ-1" vertex="1">
          <mxGeometry x="80" y="280" width="590" height="60" as="geometry" />
        </mxCell>
        <mxCell id="An0yeSetZCmGKZCt_men-2" style="edgeStyle=orthogonalEdgeStyle;rounded=1;orthogonalLoop=1;jettySize=auto;html=1;exitX=0.899;exitY=0.021;exitDx=0;exitDy=0;entryX=0.912;entryY=1.033;entryDx=0;entryDy=0;entryPerimeter=0;strokeColor=#A8201A;exitPerimeter=0;" edge="1" parent="rTfBJTmCusdj6inRNWWQ-1" source="rTfBJTmCusdj6inRNWWQ-5" target="rTfBJTmCusdj6inRNWWQ-7">
          <mxGeometry relative="1" as="geometry">
            <Array as="points">
              <mxPoint x="619" y="130" />
              <mxPoint x="618" y="102" />
            </Array>
          </mxGeometry>
        </mxCell>
        <mxCell id="rTfBJTmCusdj6inRNWWQ-5" value="Middleware" style="rounded=1;whiteSpace=wrap;html=1;labelBackgroundColor=none;labelBorderColor=none;fontSize=13;strokeColor=#d6b656;strokeWidth=0.6;fillColor=#fff2cc;align=left;verticalAlign=middle;fontStyle=1;fontColor=default;" parent="rTfBJTmCusdj6inRNWWQ-1" vertex="1">
          <mxGeometry x="160" y="160" width="510" height="60" as="geometry" />
        </mxCell>
        <mxCell id="rTfBJTmCusdj6inRNWWQ-6" style="edgeStyle=orthogonalEdgeStyle;rounded=1;orthogonalLoop=1;jettySize=auto;html=1;labelBackgroundColor=none;labelBorderColor=none;fontSize=13;fontColor=default;strokeColor=#A8201A;entryX=0.068;entryY=0.021;entryDx=0;entryDy=0;entryPerimeter=0;" parent="rTfBJTmCusdj6inRNWWQ-1" target="rTfBJTmCusdj6inRNWWQ-3" edge="1">
          <mxGeometry relative="1" as="geometry">
            <mxPoint x="229" y="280" as="targetPoint" />
            <Array as="points" />
            <mxPoint x="120" y="101" as="sourcePoint" />
          </mxGeometry>
        </mxCell>
        <mxCell id="rTfBJTmCusdj6inRNWWQ-7" value="Application" style="rounded=1;whiteSpace=wrap;html=1;labelBackgroundColor=none;labelBorderColor=none;fontSize=13;strokeColor=#6c8ebf;strokeWidth=0.6;fillColor=#dae8fc;align=left;verticalAlign=middle;fontStyle=1;fontColor=default;glass=0;sketch=0;" parent="rTfBJTmCusdj6inRNWWQ-1" vertex="1">
          <mxGeometry x="80" y="40" width="590" height="60" as="geometry" />
        </mxCell>
        <mxCell id="rTfBJTmCusdj6inRNWWQ-12" value="Communication Management" style="rounded=0;whiteSpace=wrap;html=1;labelBackgroundColor=none;labelBorderColor=none;fontSize=13;strokeColor=#6c8ebf;strokeWidth=0.6;fillColor=#dae8fc;align=center;verticalAlign=middle;shadow=1;fontColor=default;glass=0;sketch=0;" parent="rTfBJTmCusdj6inRNWWQ-1" vertex="1">
          <mxGeometry x="550" y="50" width="107.5" height="40" as="geometry" />
        </mxCell>
        <mxCell id="rTfBJTmCusdj6inRNWWQ-13" value="Data Aquisition" style="rounded=0;whiteSpace=wrap;html=1;labelBackgroundColor=none;labelBorderColor=none;fontSize=13;strokeColor=#000000;strokeWidth=0.6;fillColor=#fff2cc;align=center;verticalAlign=middle;fontColor=default;opacity=80;shadow=1;" parent="rTfBJTmCusdj6inRNWWQ-1" vertex="1">
          <mxGeometry x="480" y="170" width="75" height="40" as="geometry" />
        </mxCell>
        <mxCell id="rTfBJTmCusdj6inRNWWQ-16" value="LED Faillure&amp;nbsp; Drivers" style="rounded=0;whiteSpace=wrap;html=1;labelBackgroundColor=none;labelBorderColor=none;fontSize=13;fontColor=default;strokeColor=default;strokeWidth=0.6;fillColor=#F19C99;align=center;verticalAlign=middle;shadow=1;" parent="rTfBJTmCusdj6inRNWWQ-1" vertex="1">
          <mxGeometry x="460" y="290" width="105" height="40" as="geometry" />
        </mxCell>
        <mxCell id="rTfBJTmCusdj6inRNWWQ-19" value="Camera Driver" style="rounded=0;whiteSpace=wrap;html=1;labelBackgroundColor=none;labelBorderColor=none;fontSize=13;fontColor=default;strokeColor=default;strokeWidth=0.6;fillColor=#F19C99;align=center;verticalAlign=middle;shadow=1;" parent="rTfBJTmCusdj6inRNWWQ-1" vertex="1">
          <mxGeometry x="350" y="290" width="105" height="40" as="geometry" />
        </mxCell>
        <mxCell id="rTfBJTmCusdj6inRNWWQ-20" value="PWM Drivers" style="rounded=0;whiteSpace=wrap;html=1;labelBackgroundColor=none;labelBorderColor=none;fontSize=13;fontColor=default;strokeColor=default;strokeWidth=0.6;fillColor=#F19C99;align=center;verticalAlign=middle;shadow=1;" parent="rTfBJTmCusdj6inRNWWQ-1" vertex="1">
          <mxGeometry x="240" y="290" width="105" height="40" as="geometry" />
        </mxCell>
        <mxCell id="CkrygHN5k43zn_iCaklq-0" value="Image Processing" style="rounded=0;whiteSpace=wrap;html=1;labelBackgroundColor=none;labelBorderColor=none;fontSize=13;strokeColor=#000000;strokeWidth=0.6;fillColor=#fff2cc;align=center;verticalAlign=middle;fontColor=default;opacity=80;shadow=1;" parent="rTfBJTmCusdj6inRNWWQ-1" vertex="1">
          <mxGeometry x="400" y="170" width="75" height="40" as="geometry" />
        </mxCell>
        <mxCell id="AvoqPj7K3z-bdtmgcxCM-0" value="LoRa Drivers" style="rounded=0;whiteSpace=wrap;html=1;labelBackgroundColor=none;labelBorderColor=none;fontSize=13;fontColor=default;strokeColor=default;strokeWidth=0.6;fillColor=#F19C99;align=center;verticalAlign=middle;shadow=1;" parent="rTfBJTmCusdj6inRNWWQ-1" vertex="1">
          <mxGeometry x="570" y="290" width="90" height="40" as="geometry" />
        </mxCell>
        <mxCell id="AvoqPj7K3z-bdtmgcxCM-1" value="LoRa Services" style="rounded=0;whiteSpace=wrap;html=1;labelBackgroundColor=none;labelBorderColor=none;fontSize=13;strokeColor=#000000;strokeWidth=0.6;fillColor=#fff2cc;align=center;verticalAlign=middle;fontColor=default;opacity=80;shadow=1;" parent="rTfBJTmCusdj6inRNWWQ-1" vertex="1">
          <mxGeometry x="560" y="170" width="100" height="40" as="geometry" />
        </mxCell>
        <mxCell id="An0yeSetZCmGKZCt_men-0" style="edgeStyle=orthogonalEdgeStyle;rounded=1;orthogonalLoop=1;jettySize=auto;html=1;labelBackgroundColor=none;labelBorderColor=none;fontSize=13;fontColor=default;strokeColor=#A8201A;entryX=0.903;entryY=1.017;entryDx=0;entryDy=0;entryPerimeter=0;" edge="1" parent="rTfBJTmCusdj6inRNWWQ-1">
          <mxGeometry relative="1" as="geometry">
            <mxPoint x="621.48" y="280.9999999999999" as="targetPoint" />
            <Array as="points">
              <mxPoint x="621.48" y="231" />
              <mxPoint x="621.48" y="231" />
            </Array>
            <mxPoint x="621.01" y="222.01999999999998" as="sourcePoint" />
          </mxGeometry>
        </mxCell>
        <mxCell id="An0yeSetZCmGKZCt_men-3" style="edgeStyle=orthogonalEdgeStyle;rounded=1;orthogonalLoop=1;jettySize=auto;html=1;exitX=0.899;exitY=0.021;exitDx=0;exitDy=0;entryX=0.912;entryY=1.033;entryDx=0;entryDy=0;entryPerimeter=0;strokeColor=#A8201A;exitPerimeter=0;" edge="1" parent="rTfBJTmCusdj6inRNWWQ-1">
          <mxGeometry relative="1" as="geometry">
            <mxPoint x="618.6600000000002" y="102.72000000000001" as="sourcePoint" />
            <mxPoint x="619.0700000000003" y="161.9999999999999" as="targetPoint" />
            <Array as="points">
              <mxPoint x="618.58" y="130.74" />
              <mxPoint x="619.58" y="130.74" />
            </Array>
          </mxGeometry>
        </mxCell>
        <mxCell id="An0yeSetZCmGKZCt_men-4" style="edgeStyle=orthogonalEdgeStyle;rounded=1;orthogonalLoop=1;jettySize=auto;html=1;labelBackgroundColor=none;labelBorderColor=none;fontSize=13;fontColor=default;strokeColor=#A8201A;entryX=0.068;entryY=0.021;entryDx=0;entryDy=0;entryPerimeter=0;" edge="1" parent="rTfBJTmCusdj6inRNWWQ-1">
          <mxGeometry relative="1" as="geometry">
            <mxPoint x="120" y="99.74" as="targetPoint" />
            <Array as="points">
              <mxPoint x="120" y="238.74" />
              <mxPoint x="120" y="238.74" />
            </Array>
            <mxPoint x="120.12000000000012" y="279.9999999999999" as="sourcePoint" />
          </mxGeometry>
        </mxCell>
      </root>
    </mxGraphModel>
  </diagram>
  <diagram name="gateway_sw_arch" id="tgn_oF9Zx0ag74VxLGx6">
    <mxGraphModel dx="981" dy="547" grid="1" gridSize="10" guides="1" tooltips="1" connect="1" arrows="1" fold="1" page="1" pageScale="1" pageWidth="850" pageHeight="1100" math="0" shadow="0">
      <root>
        <mxCell id="ortqdx7BMK1g8GDAklnV-0" />
        <mxCell id="ortqdx7BMK1g8GDAklnV-1" parent="ortqdx7BMK1g8GDAklnV-0" />
        <mxCell id="ortqdx7BMK1g8GDAklnV-2" style="edgeStyle=orthogonalEdgeStyle;rounded=1;orthogonalLoop=1;jettySize=auto;html=1;labelBackgroundColor=none;labelBorderColor=none;fontSize=13;fontColor=default;strokeColor=#A8201A;" parent="ortqdx7BMK1g8GDAklnV-1" source="ortqdx7BMK1g8GDAklnV-3" edge="1">
          <mxGeometry relative="1" as="geometry">
            <mxPoint x="630" y="221" as="targetPoint" />
            <Array as="points">
              <mxPoint x="630" y="221" />
            </Array>
          </mxGeometry>
        </mxCell>
        <mxCell id="ortqdx7BMK1g8GDAklnV-3" value="Operating System " style="rounded=1;whiteSpace=wrap;html=1;labelBackgroundColor=none;labelBorderColor=none;fontSize=13;fontColor=default;strokeColor=default;strokeWidth=0.6;fillColor=#F19C99;align=left;verticalAlign=middle;fontStyle=1" parent="ortqdx7BMK1g8GDAklnV-1" vertex="1">
          <mxGeometry x="240" y="280" width="430" height="60" as="geometry" />
        </mxCell>
        <mxCell id="ortqdx7BMK1g8GDAklnV-4" style="edgeStyle=orthogonalEdgeStyle;rounded=0;orthogonalLoop=1;jettySize=auto;html=1;entryX=0.907;entryY=1.003;entryDx=0;entryDy=0;entryPerimeter=0;labelBorderColor=none;fontColor=default;strokeColor=#A8201A;labelBackgroundColor=default;" parent="ortqdx7BMK1g8GDAklnV-1" source="ortqdx7BMK1g8GDAklnV-5" target="ortqdx7BMK1g8GDAklnV-7" edge="1">
          <mxGeometry relative="1" as="geometry">
            <Array as="points">
              <mxPoint x="630" y="100" />
              <mxPoint x="630" y="100" />
            </Array>
          </mxGeometry>
        </mxCell>
        <mxCell id="ortqdx7BMK1g8GDAklnV-5" value="Middleware" style="rounded=1;whiteSpace=wrap;html=1;labelBackgroundColor=none;labelBorderColor=none;fontSize=13;strokeColor=#d6b656;strokeWidth=0.6;fillColor=#fff2cc;align=left;verticalAlign=middle;fontStyle=1;fontColor=default;" parent="ortqdx7BMK1g8GDAklnV-1" vertex="1">
          <mxGeometry x="300" y="160" width="370" height="60" as="geometry" />
        </mxCell>
        <mxCell id="ortqdx7BMK1g8GDAklnV-6" style="edgeStyle=orthogonalEdgeStyle;rounded=1;orthogonalLoop=1;jettySize=auto;html=1;labelBackgroundColor=none;labelBorderColor=none;fontSize=13;fontColor=default;strokeColor=#A8201A;entryX=0.068;entryY=0.021;entryDx=0;entryDy=0;entryPerimeter=0;exitX=0.067;exitY=1.022;exitDx=0;exitDy=0;exitPerimeter=0;" parent="ortqdx7BMK1g8GDAklnV-1" source="ortqdx7BMK1g8GDAklnV-7" target="ortqdx7BMK1g8GDAklnV-3" edge="1">
          <mxGeometry relative="1" as="geometry">
            <mxPoint x="229" y="280" as="targetPoint" />
            <Array as="points" />
            <mxPoint x="120" y="101" as="sourcePoint" />
          </mxGeometry>
        </mxCell>
        <mxCell id="ortqdx7BMK1g8GDAklnV-7" value="Application" style="rounded=1;whiteSpace=wrap;html=1;labelBackgroundColor=none;labelBorderColor=none;fontSize=13;strokeColor=#6c8ebf;strokeWidth=0.6;fillColor=#dae8fc;align=left;verticalAlign=middle;fontStyle=1;fontColor=default;glass=0;sketch=0;" parent="ortqdx7BMK1g8GDAklnV-1" vertex="1">
          <mxGeometry x="240" y="40" width="430" height="60" as="geometry" />
        </mxCell>
        <mxCell id="ortqdx7BMK1g8GDAklnV-8" value="Communication Drivers" style="rounded=0;whiteSpace=wrap;html=1;labelBackgroundColor=none;labelBorderColor=none;fontSize=13;fontColor=default;strokeColor=default;strokeWidth=0.6;fillColor=#F19C99;align=center;verticalAlign=middle;shadow=1;" parent="ortqdx7BMK1g8GDAklnV-1" vertex="1">
          <mxGeometry x="550" y="290" width="110" height="40" as="geometry" />
        </mxCell>
        <mxCell id="ortqdx7BMK1g8GDAklnV-9" value="LoRa Services" style="rounded=0;whiteSpace=wrap;html=1;labelBackgroundColor=none;labelBorderColor=none;fontSize=13;strokeColor=#000000;strokeWidth=0.6;fillColor=#fff2cc;align=center;verticalAlign=middle;fontColor=default;opacity=80;shadow=1;" parent="ortqdx7BMK1g8GDAklnV-1" vertex="1">
          <mxGeometry x="560" y="170" width="100" height="40" as="geometry" />
        </mxCell>
        <mxCell id="ortqdx7BMK1g8GDAklnV-12" value="Communication Management" style="rounded=0;whiteSpace=wrap;html=1;labelBackgroundColor=none;labelBorderColor=none;fontSize=13;strokeColor=#6c8ebf;strokeWidth=0.6;fillColor=#dae8fc;align=center;verticalAlign=middle;shadow=1;fontColor=default;glass=0;sketch=0;" parent="ortqdx7BMK1g8GDAklnV-1" vertex="1">
          <mxGeometry x="550" y="50" width="107.5" height="40" as="geometry" />
        </mxCell>
        <mxCell id="3XaeLJS1vow5NLNP1hDe-2" style="edgeStyle=orthogonalEdgeStyle;rounded=1;orthogonalLoop=1;jettySize=auto;html=1;labelBackgroundColor=none;labelBorderColor=none;fontSize=13;fontColor=default;strokeColor=#A8201A;entryX=0.068;entryY=0.021;entryDx=0;entryDy=0;entryPerimeter=0;exitX=0.068;exitY=1.007;exitDx=0;exitDy=0;exitPerimeter=0;" parent="ortqdx7BMK1g8GDAklnV-1" source="ortqdx7BMK1g8GDAklnV-7" target="ortqdx7BMK1g8GDAklnV-3" edge="1">
          <mxGeometry relative="1" as="geometry">
            <mxPoint x="229" y="280" as="targetPoint" />
            <Array as="points" />
            <mxPoint x="120" y="101" as="sourcePoint" />
          </mxGeometry>
        </mxCell>
        <mxCell id="wmu-cKxskQAqlBoFwJaJ-0" value="TCP/IP Framework" style="rounded=0;whiteSpace=wrap;html=1;labelBackgroundColor=none;labelBorderColor=none;fontSize=13;strokeColor=#000000;strokeWidth=0.6;fillColor=#fff2cc;align=center;verticalAlign=middle;fontColor=default;opacity=80;shadow=1;" vertex="1" parent="ortqdx7BMK1g8GDAklnV-1">
          <mxGeometry x="453" y="170" width="100" height="40" as="geometry" />
        </mxCell>
        <mxCell id="BC4ZIykpaYtb4iWGnYSo-0" style="edgeStyle=orthogonalEdgeStyle;rounded=0;orthogonalLoop=1;jettySize=auto;html=1;entryX=0.907;entryY=1.003;entryDx=0;entryDy=0;entryPerimeter=0;labelBorderColor=none;fontColor=default;strokeColor=#A8201A;labelBackgroundColor=default;" edge="1" parent="ortqdx7BMK1g8GDAklnV-1">
          <mxGeometry relative="1" as="geometry">
            <Array as="points">
              <mxPoint x="629.99" y="140" />
              <mxPoint x="629.99" y="140" />
            </Array>
            <mxPoint x="630" y="100.17999999999995" as="sourcePoint" />
            <mxPoint x="630.0244827586207" y="159.9999999999999" as="targetPoint" />
          </mxGeometry>
        </mxCell>
        <mxCell id="BC4ZIykpaYtb4iWGnYSo-1" style="edgeStyle=orthogonalEdgeStyle;rounded=1;orthogonalLoop=1;jettySize=auto;html=1;labelBackgroundColor=none;labelBorderColor=none;fontSize=13;fontColor=default;strokeColor=#A8201A;" edge="1" parent="ortqdx7BMK1g8GDAklnV-1">
          <mxGeometry relative="1" as="geometry">
            <mxPoint x="630.0344827586207" y="279.9999999999999" as="targetPoint" />
            <Array as="points">
              <mxPoint x="630" y="221" />
            </Array>
            <mxPoint x="630" y="221" as="sourcePoint" />
          </mxGeometry>
        </mxCell>
        <mxCell id="BC4ZIykpaYtb4iWGnYSo-2" style="edgeStyle=orthogonalEdgeStyle;rounded=1;orthogonalLoop=1;jettySize=auto;html=1;labelBackgroundColor=none;labelBorderColor=none;fontSize=13;fontColor=default;strokeColor=#A8201A;entryX=0.068;entryY=0.021;entryDx=0;entryDy=0;entryPerimeter=0;exitX=0.068;exitY=1.007;exitDx=0;exitDy=0;exitPerimeter=0;" edge="1" parent="ortqdx7BMK1g8GDAklnV-1">
          <mxGeometry relative="1" as="geometry">
            <mxPoint x="270" y="99.16000000000007" as="targetPoint" />
            <Array as="points" />
            <mxPoint x="270" y="279.9999999999999" as="sourcePoint" />
          </mxGeometry>
        </mxCell>
      </root>
    </mxGraphModel>
  </diagram>
  <diagram name="remote_sw_arch" id="zkl_AhVrkQId0UgMf_1x">
    <mxGraphModel dx="813" dy="453" grid="1" gridSize="10" guides="1" tooltips="1" connect="1" arrows="1" fold="1" page="1" pageScale="1" pageWidth="850" pageHeight="1100" math="0" shadow="0">
      <root>
        <mxCell id="rKDpD6mXBBvhDezHHSJh-0" />
        <mxCell id="rKDpD6mXBBvhDezHHSJh-1" parent="rKDpD6mXBBvhDezHHSJh-0" />
        <mxCell id="rKDpD6mXBBvhDezHHSJh-5" value="Middleware" style="rounded=1;whiteSpace=wrap;html=1;labelBackgroundColor=none;labelBorderColor=none;fontSize=13;strokeColor=#d6b656;strokeWidth=0.6;fillColor=#fff2cc;align=left;verticalAlign=middle;fontStyle=1;fontColor=default;" vertex="1" parent="rKDpD6mXBBvhDezHHSJh-1">
          <mxGeometry x="260" y="160" width="409" height="60" as="geometry" />
        </mxCell>
        <mxCell id="rKDpD6mXBBvhDezHHSJh-2" style="edgeStyle=orthogonalEdgeStyle;rounded=1;orthogonalLoop=1;jettySize=auto;html=1;labelBackgroundColor=none;labelBorderColor=none;fontSize=13;fontColor=default;strokeColor=#A8201A;" edge="1" parent="rKDpD6mXBBvhDezHHSJh-1" source="rKDpD6mXBBvhDezHHSJh-3">
          <mxGeometry relative="1" as="geometry">
            <mxPoint x="630" y="221" as="targetPoint" />
            <Array as="points">
              <mxPoint x="630" y="260" />
              <mxPoint x="630" y="260" />
            </Array>
          </mxGeometry>
        </mxCell>
        <mxCell id="rKDpD6mXBBvhDezHHSJh-3" value="Operating System " style="rounded=1;whiteSpace=wrap;html=1;labelBackgroundColor=none;labelBorderColor=none;fontSize=13;fontColor=default;strokeColor=default;strokeWidth=0.6;fillColor=#F19C99;align=left;verticalAlign=middle;fontStyle=1" vertex="1" parent="rKDpD6mXBBvhDezHHSJh-1">
          <mxGeometry x="200" y="280" width="470" height="60" as="geometry" />
        </mxCell>
        <mxCell id="rKDpD6mXBBvhDezHHSJh-4" style="edgeStyle=orthogonalEdgeStyle;rounded=0;orthogonalLoop=1;jettySize=auto;html=1;entryX=0.911;entryY=1.028;entryDx=0;entryDy=0;entryPerimeter=0;labelBorderColor=none;fontColor=default;strokeColor=#A8201A;labelBackgroundColor=default;" edge="1" parent="rKDpD6mXBBvhDezHHSJh-1" target="rKDpD6mXBBvhDezHHSJh-7">
          <mxGeometry relative="1" as="geometry">
            <Array as="points">
              <mxPoint x="628" y="130" />
            </Array>
            <mxPoint x="628" y="160" as="sourcePoint" />
          </mxGeometry>
        </mxCell>
        <mxCell id="rKDpD6mXBBvhDezHHSJh-6" style="edgeStyle=orthogonalEdgeStyle;rounded=1;orthogonalLoop=1;jettySize=auto;html=1;labelBackgroundColor=none;labelBorderColor=none;fontSize=13;fontColor=default;strokeColor=#A8201A;entryX=0.068;entryY=0.021;entryDx=0;entryDy=0;entryPerimeter=0;exitX=0.067;exitY=1.022;exitDx=0;exitDy=0;exitPerimeter=0;" edge="1" parent="rKDpD6mXBBvhDezHHSJh-1" source="rKDpD6mXBBvhDezHHSJh-7" target="rKDpD6mXBBvhDezHHSJh-3">
          <mxGeometry relative="1" as="geometry">
            <mxPoint x="229" y="280" as="targetPoint" />
            <Array as="points" />
            <mxPoint x="120" y="101" as="sourcePoint" />
          </mxGeometry>
        </mxCell>
        <mxCell id="rKDpD6mXBBvhDezHHSJh-7" value="Application" style="rounded=1;whiteSpace=wrap;html=1;labelBackgroundColor=none;labelBorderColor=none;fontSize=13;strokeColor=#6c8ebf;strokeWidth=0.6;fillColor=#dae8fc;align=left;verticalAlign=middle;fontStyle=1;fontColor=default;glass=0;sketch=0;" vertex="1" parent="rKDpD6mXBBvhDezHHSJh-1">
          <mxGeometry x="200" y="40" width="470" height="60" as="geometry" />
        </mxCell>
        <mxCell id="rKDpD6mXBBvhDezHHSJh-8" value="Communication Drivers" style="rounded=0;whiteSpace=wrap;html=1;labelBackgroundColor=none;labelBorderColor=none;fontSize=13;fontColor=default;strokeColor=default;strokeWidth=0.6;fillColor=#F19C99;align=center;verticalAlign=middle;shadow=1;" vertex="1" parent="rKDpD6mXBBvhDezHHSJh-1">
          <mxGeometry x="560" y="290" width="100" height="40" as="geometry" />
        </mxCell>
        <mxCell id="rKDpD6mXBBvhDezHHSJh-12" value="Communication Management" style="rounded=0;whiteSpace=wrap;html=1;labelBackgroundColor=none;labelBorderColor=none;fontSize=13;strokeColor=#6c8ebf;strokeWidth=0.6;fillColor=#dae8fc;align=center;verticalAlign=middle;shadow=1;fontColor=default;glass=0;sketch=0;" vertex="1" parent="rKDpD6mXBBvhDezHHSJh-1">
          <mxGeometry x="552.5" y="50" width="107.5" height="40" as="geometry" />
        </mxCell>
        <mxCell id="rKDpD6mXBBvhDezHHSJh-14" style="edgeStyle=orthogonalEdgeStyle;rounded=1;orthogonalLoop=1;jettySize=auto;html=1;labelBackgroundColor=none;labelBorderColor=none;fontSize=13;fontColor=default;strokeColor=#A8201A;entryX=0.068;entryY=0.021;entryDx=0;entryDy=0;entryPerimeter=0;exitX=0.068;exitY=1.007;exitDx=0;exitDy=0;exitPerimeter=0;" edge="1" parent="rKDpD6mXBBvhDezHHSJh-1" source="rKDpD6mXBBvhDezHHSJh-7" target="rKDpD6mXBBvhDezHHSJh-3">
          <mxGeometry relative="1" as="geometry">
            <mxPoint x="229" y="280" as="targetPoint" />
            <Array as="points" />
            <mxPoint x="120" y="101" as="sourcePoint" />
          </mxGeometry>
        </mxCell>
        <mxCell id="rKDpD6mXBBvhDezHHSJh-15" value="TCP/IP Framework" style="rounded=0;whiteSpace=wrap;html=1;labelBackgroundColor=none;labelBorderColor=none;fontSize=13;strokeColor=#000000;strokeWidth=0.6;fillColor=#fff2cc;align=center;verticalAlign=middle;fontColor=default;opacity=80;shadow=1;" vertex="1" parent="rKDpD6mXBBvhDezHHSJh-1">
          <mxGeometry x="560" y="170" width="100" height="40" as="geometry" />
        </mxCell>
        <mxCell id="qFNW6Ui8AFGHrocrqdsR-0" value="Database Management" style="rounded=0;whiteSpace=wrap;html=1;labelBackgroundColor=none;labelBorderColor=none;fontSize=13;strokeColor=#6c8ebf;strokeWidth=0.6;fillColor=#dae8fc;align=center;verticalAlign=middle;shadow=1;fontColor=default;glass=0;sketch=0;" vertex="1" parent="rKDpD6mXBBvhDezHHSJh-1">
          <mxGeometry x="460" y="50" width="87" height="40" as="geometry" />
        </mxCell>
        <mxCell id="qFNW6Ui8AFGHrocrqdsR-1" value="GUI" style="rounded=0;whiteSpace=wrap;html=1;labelBackgroundColor=none;labelBorderColor=none;fontSize=13;strokeColor=#6c8ebf;strokeWidth=0.6;fillColor=#dae8fc;align=center;verticalAlign=middle;shadow=1;fontColor=default;glass=0;sketch=0;" vertex="1" parent="rKDpD6mXBBvhDezHHSJh-1">
          <mxGeometry x="369.5" y="50" width="85" height="40" as="geometry" />
        </mxCell>
        <mxCell id="K8KOSWFyZ05HSEFblxLL-0" style="edgeStyle=orthogonalEdgeStyle;rounded=0;orthogonalLoop=1;jettySize=auto;html=1;entryX=0.899;entryY=0.012;entryDx=0;entryDy=0;entryPerimeter=0;labelBorderColor=none;fontColor=default;strokeColor=#A8201A;labelBackgroundColor=default;" edge="1" parent="rKDpD6mXBBvhDezHHSJh-1" target="rKDpD6mXBBvhDezHHSJh-5">
          <mxGeometry relative="1" as="geometry">
            <Array as="points">
              <mxPoint x="628" y="102" />
              <mxPoint x="628" y="161" />
            </Array>
            <mxPoint x="628" y="102" as="sourcePoint" />
            <mxPoint x="638" y="160" as="targetPoint" />
          </mxGeometry>
        </mxCell>
        <mxCell id="K8KOSWFyZ05HSEFblxLL-1" value="" style="edgeStyle=orthogonalEdgeStyle;rounded=1;orthogonalLoop=1;jettySize=auto;html=1;labelBackgroundColor=none;labelBorderColor=none;fontSize=13;fontColor=default;strokeColor=#A8201A;" edge="1" parent="rKDpD6mXBBvhDezHHSJh-1">
          <mxGeometry relative="1" as="geometry">
            <mxPoint x="630.0285714285715" y="281" as="targetPoint" />
            <Array as="points">
              <mxPoint x="630" y="261" />
              <mxPoint x="630" y="261" />
            </Array>
            <mxPoint x="630" y="222" as="sourcePoint" />
          </mxGeometry>
        </mxCell>
        <mxCell id="K8KOSWFyZ05HSEFblxLL-2" style="edgeStyle=orthogonalEdgeStyle;rounded=1;orthogonalLoop=1;jettySize=auto;html=1;labelBackgroundColor=none;labelBorderColor=none;fontSize=13;fontColor=default;strokeColor=#A8201A;entryX=0.068;entryY=0.021;entryDx=0;entryDy=0;entryPerimeter=0;exitX=0.068;exitY=1.007;exitDx=0;exitDy=0;exitPerimeter=0;" edge="1" parent="rKDpD6mXBBvhDezHHSJh-1">
          <mxGeometry relative="1" as="geometry">
            <mxPoint x="232.00000000000003" y="100.15999999999995" as="targetPoint" />
            <Array as="points" />
            <mxPoint x="232.00000000000003" y="281" as="sourcePoint" />
          </mxGeometry>
        </mxCell>
      </root>
    </mxGraphModel>
  </diagram>
</mxfile>
